<svg id="Layer_1" data-name="Layer 1" xmlns="http://www.w3.org/2000/svg" viewBox="0 0 744 1015"><defs><style>.cls-1{fill:none;stroke:#603813;stroke-miterlimit:10;stroke-width:4px;}.cls-2{fill:#8b6045;}.cls-3{fill:#97684b;}.cls-4{fill:#59719d;}.cls-5{fill:#535e7e;}</style></defs><line class="cls-1" x1="696.35" y1="742.48" x2="395.61"/><line class="cls-1" x1="21.84" y1="793.16" x2="357.11" y2="0.32"/><path class="cls-2" d="M21.49,777,.21,854.72s11.21,59,27,67.63c0,0,41.73,56.12,57.56,61.87s90.65,21.58,90.65,21.58,100.46,1.44,113.54,0,113.81,2.88,122.44-2.87S528,978.47,528,978.47s110.8-34.54,112.24-37.42,53.24-18.7,59-37.41,33.1-48.92,33.1-48.92l-17.27-7.2-14.39,27.34-20.14,31.66L574,941.05s-208.65,50.37-309.37,33.1L117.9,958.32,47.39,918s-25.9-47.48-25.9-63.31,23-77.7,23-77.7Z"/><path class="cls-2" d="M74.73,689.24S102.07,777,89.12,824.5l12.95,4.32S99.19,702.19,74.73,689.24Z"/><path class="cls-2" d="M93.58,682.39s30.08,106.14,14.25,146.43h8.8S118.42,731.19,98,680Z"/><path class="cls-2" d="M111.53,673.62s27.73,117.79,17.77,155.2h8.76s-5.31-142.66-17.77-159.1"/><path class="cls-2" d="M138.06,660.28s21.57,118.18,11.5,174.29l8.63,2.88s8.63-156.84-14.39-179.86S138.06,660.28,138.06,660.28Z"/><path class="cls-2" d="M169.7,651.83s14.39,146.77,8.64,159.72h15.25s.57-136.7-15.25-156.84Z"/><path class="cls-2" d="M209.17,651.83s15.21,155.4,6.58,162.6h9s-.82-157.51-7.79-164.37Z"/><polygon class="cls-2" points="248.14 651.83 248.14 814.43 263.23 818.75 263.23 650.06 248.14 651.83"/><polygon class="cls-2" points="285.64 651.83 279.31 818.75 290.02 818.75 298.3 651.83 285.64 651.83"/><polygon class="cls-2" points="328.2 657.04 323.51 818.75 340.86 818.75 340.86 651.83 328.2 657.04"/><polygon class="cls-2" points="366.26 654.38 377.92 818.75 398.42 818.75 382.34 654.38 366.26 654.38"/><polygon class="cls-2" points="430.01 660.07 430.01 811.55 448.09 811.55 448.09 651.83 430.01 651.83 430.01 660.07"/><polygon class="cls-2" points="478.85 654.38 483.39 807.23 500.65 802.92 493.04 654.38 478.85 654.38"/><polygon class="cls-2" points="523.68 654.71 523.68 804.19 541.92 804.19 537.19 651.83 523.68 654.71"/><path class="cls-2" d="M567.15,651.83s-11,150.75-7.09,152.36,11,0,11,0,1-155.68,6.3-156.18S567.15,651.83,567.15,651.83Z"/><path class="cls-2" d="M590.81,654.38s-15.44,142.45-3.16,149.81l8-4.15s-4.48-139.58,6.4-148.21S590.81,654.38,590.81,654.38Z"/><path class="cls-2" d="M618.41,654.38s-14.44,66.18-7.1,149.81l7.1,7.36S620.08,678.64,628,663.8"/><path class="cls-2" d="M643.11,669.1s-21,135.26-5.76,156.84l21.58-7.19s-15.71-145.34-4.25-143.9S643.11,669.1,643.11,669.1Z"/><path class="cls-3" d="M89.12,824.5s401,20.15,569.59-5.75l56.34,28.77L684.83,908S364,1024.51,113.58,958.32L43.08,918S43.08,849,89.12,824.5Z"/><path class="cls-4" d="M178.34,811.55s103.94,0,111.68,7.2,44-8.64,76.24-4.32,99.85-7.53,108.49-10.24,67.17,0,67.17,0,39.31,3,53.7-4.15,22.79,11.51,22.79,11.51,18.7,40.29,21,43.17,36.81,31.65,36.81,31.65l9,12.8s-23.12,10.61-44.11,16.89S529.43,949.3,500.65,952.37s-113.67,7.39-139.57,16-48.43,2.88-81.77,0-147.47-15.18-147.47-15.18-17.83,1.34-15.17-2.53S138.06,911,138.06,911l31.64-42.22Z"/><path class="cls-5" d="M122,941.2l210.15,21.43s26-5.75,30.33-5.75,120.87-11.51,120.87-11.51S561.09,931,572.6,928.1s80.58-24.46,80.58-24.46l23-17.27,9,12.8-44.11,16.89s-134.67,40.43-140.43,36.31-139.57,16-139.57,16-15.33,11.51-81.77,0c0,0-147.93-14.53-147.47-15.18s-.46.65-.46.65l-14.71-3.18Z"/><path class="cls-5" d="M169.7,868.78s8.64-6.87,15.83-6.87S170.85,872.69,166,873.77"/><path class="cls-5" d="M290,818.75s-12.4,1.43-15.28,2.87c0,0,16.16-2.16,20.31-1.08"/><path class="cls-5" d="M639.39,854.72s-10.67-5.76-19.31-4.32c0,0,20,5.52,23,7.8"/><path class="cls-3" d="M28.69,766.94s20.14-102.16,79.14-113.67c0,0,67.63-21.58,92.09-15.83l73.36-1,67.65,3.85s33.1,1.44,84.9,1.44H549.58l52.44.11s35.33,4.2,46.84,15.72,31.66,34.53,31.66,34.53l15.83,30.22,40.29,70.5s20.14,18.71-4.32,61.88l-17.27-7.2s17.27-14.39,15.83-41.72l-31.66-47.49-20.14-46s-25.9-37.42-33.1-37.42-11.51-20.14-69.06-18.7l-66.19,1.44-93.53,2.87L305,656.15l-80.58-2.88-46,1.44s-28.78,1.44-50.37,11.51-46,18.71-48.92,30.22S60.34,731,60.34,731L44.52,777h-23Z"/></svg>