<svg id="Layer_1" data-name="Layer 1" xmlns="http://www.w3.org/2000/svg" viewBox="0 0 1903 1054"><defs><style>.cls-1{fill:#6f7b26;}.cls-2{fill:#4e4b1d;}</style></defs><path class="cls-1" d="M813.52,62.42s-32.61-30.05,0-73C813.52-10.63,874.84,16.24,813.52,62.42Z"/><path class="cls-2" d="M710,60.92s-.42-55.18,55.13-65.75S732.58,19.77,710,60.92Z"/><path class="cls-2" d="M885.45,72.36s37,11.31,25.31,67.47C910.76,139.83,864,175.86,885.45,72.36Z"/><path class="cls-1" d="M862.49,137.33s-32.61-30,0-73.05C862.49,64.28,923.81,91.16,862.49,137.33Z"/><path class="cls-1" d="M899.05,181.76s32.61-30,0-73C899.05,108.72,837.73,135.59,899.05,181.76Z"/><path class="cls-2" d="M871.8,162s-.43-55.17,55.12-65.75S894.34,120.85,871.8,162Z"/><path class="cls-2" d="M868.58,81.79s-37.06-11.31-25.32-67.46C843.26,14.33,890-21.71,868.58,81.79Z"/><path class="cls-1" d="M879,51.59s-32.62-30,0-73.05C879-21.46,940.33,5.41,879,51.59Z"/><path class="cls-2" d="M926.69,223.25s-4.29,37-64.15,37C862.54,260.28,816.4,223.56,926.69,223.25Z"/><path class="cls-2" d="M1801.41-28.75s-15.88,28.22,8.18,63.4S1800.7,4.53,1801.41-28.75Z"/><path class="cls-1" d="M1827.33,48.38s25.4-47.4-.45-91.09C1826.88-42.71,1778.6-3,1827.33,48.38Z"/><path class="cls-2" d="M1894.19,24.92s-27.84,34.34-66.11,13.82S1859.89,39.39,1894.19,24.92Z"/><path class="cls-1" d="M1752.55,15S1805-27.1,1866.76-4.23C1866.76-4.23,1830.25,64.87,1752.55,15Z"/><path class="cls-2" d="M1898.58,16.68s-34.74,42.87-84.35,15.73S1855,34.12,1898.58,16.68Z"/><path class="cls-2" d="M1792.23-41.61s21.43,32.28-23.32,68.18C1768.91,26.57,1709.94,24.71,1792.23-41.61Z"/><path class="cls-1" d="M1818.06,24.37s44.27-2.47,46.42-56.41C1864.48-32,1800.06-50.25,1818.06,24.37Z"/><path class="cls-1" d="M1828.24,109.88s31.23-59.53-3.1-115.78C1825.14-5.9,1764.36,43.22,1828.24,109.88Z"/><path class="cls-1" d="M1904.8,49.34s-44.27,2.47-46.42,56.4C1858.38,105.74,1922.81,124,1904.8,49.34Z"/><path class="cls-2" d="M1898.75,91s35.38-42.34-.79-85.8S1907.49,44.93,1898.75,91Z"/><path class="cls-1" d="M1873.75-43.65s-31.23,59.53,3.1,115.77C1876.85,72.12,1937.63,23,1873.75-43.65Z"/><path class="cls-2" d="M1918.49,133.71s-34.73,42.87-84.34,15.73S1874.94,151.15,1918.49,133.71Z"/><path class="cls-1" d="M1781.52,135.09s52.41-42.1,114.2-19.23C1895.72,115.86,1859.22,185,1781.52,135.09Z"/><path class="cls-2" d="M1804,65.3s-35.38,42.34.79,85.8S1795.21,111.4,1804,65.3Z"/><path class="cls-2" d="M1924.71,76.49s-35.8-14.82-62.42,36C1862.29,112.5,1875.46,170,1924.71,76.49Z"/><path class="cls-1" d="M1813.22,195.85s52.41-42.11,114.21-19.24C1927.43,176.61,1890.93,245.71,1813.22,195.85Z"/><path class="cls-2" d="M1852.9,139.23s21.43,32.28-23.32,68.18C1829.58,207.41,1770.61,205.55,1852.9,139.23Z"/><path class="cls-2" d="M1832.87,9.61s21.42,32.28-23.33,68.18C1809.54,77.79,1750.57,75.93,1832.87,9.61Z"/><path class="cls-1" d="M1773.86,45.19s-6.09-43.92,46.42-56.4C1820.28-11.21,1850.54,48.5,1773.86,45.19Z"/><path class="cls-2" d="M1813.6,31.23S1778.87,74.1,1729.26,47,1770.05,48.67,1813.6,31.23Z"/><path class="cls-1" d="M1676.63,32.61S1729-9.49,1790.84,13.38C1790.84,13.38,1754.33,82.47,1676.63,32.61Z"/><path class="cls-2" d="M1699.06-37.18s-35.38,42.33.79,85.8S1690.32,8.92,1699.06-37.18Z"/><path class="cls-2" d="M1819.82-26S1784-40.81,1757.4,10C1757.4,10,1770.58,67.53,1819.82-26Z"/><path class="cls-1" d="M1708.33,93.36s52.41-42.1,114.21-19.23C1822.54,74.13,1786,143.23,1708.33,93.36Z"/><path class="cls-2" d="M1748,36.75s21.42,32.28-23.33,68.18C1724.69,104.93,1665.72,103.07,1748,36.75Z"/><path class="cls-1" d="M1773.85,102.73s44.27-2.47,46.42-56.4C1820.27,46.33,1755.84,28.11,1773.85,102.73Z"/><path class="cls-2" d="M1765.37,70.15s34.73-42.87,84.34-15.73S1808.92,52.7,1765.37,70.15Z"/><path class="cls-2" d="M1666.53,2.59s35.38-42.33-.8-85.79S1675.26-43.51,1666.53,2.59Z"/><path class="cls-1" d="M1648,3.73s6.09,43.92-46.42,56.4C1601.61,60.13,1571.35.42,1648,3.73Z"/><path class="cls-2" d="M1608.29,17.69S1643-25.17,1692.63,2,1651.84.25,1608.29,17.69Z"/><path class="cls-1" d="M1745.26,16.31s-52.41,42.1-114.21,19.23C1631.05,35.54,1667.56-33.55,1745.26,16.31Z"/><path class="cls-2" d="M1722.83,86.1s35.38-42.33-.79-85.8S1731.57,40,1722.83,86.1Z"/><path class="cls-2" d="M1602.07,74.91s35.8,14.82,62.41-36C1664.48,38.91,1651.31-18.61,1602.07,74.91Z"/><path class="cls-2" d="M1673.87,12.17S1652.44-20.11,1697.19-56C1697.19-56,1756.17-54.15,1673.87,12.17Z"/><path class="cls-2" d="M1843.8,108.14S1822.37,75.86,1867.12,40C1867.12,40,1926.09,41.82,1843.8,108.14Z"/><path class="cls-1" d="M1794.47,139.33s54.23,44.5,46.41,108.16C1840.88,247.49,1763.74,222.62,1794.47,139.33Z"/><path class="cls-2" d="M1827.81,281.67S1777.06,254.49,1792,202,1800.11,242,1827.81,281.67Z"/><path class="cls-2" d="M1814.2,155.65s-26.81,25.82-73.07-12.18C1741.13,143.47,1728.84,85.8,1814.2,155.65Z"/><path class="cls-1" d="M1690.8,186.46s42-12.71,67,36.46C1757.75,222.92,1705.9,261.58,1690.8,186.46Z"/><path class="cls-1" d="M1800.9,204.52s13.06,42.69,67,36.46C1867.86,241,1870.44,175.49,1800.9,204.52Z"/><path class="cls-2" d="M1808,178s-39.75-13.58-77,24.37S1766.12,184.51,1808,178Z"/><path class="cls-1" d="M1718.71,227.61s66.41,21.21,113.84-20.88C1832.55,206.73,1769.37,155.17,1718.71,227.61Z"/><path class="cls-2" d="M1766.77,306.05S1716,278.86,1731,226.41,1739.06,266.36,1766.77,306.05Z"/><path class="cls-1" d="M1701.46,47.39s54.23,44.51,46.41,108.16C1747.87,155.55,1670.73,130.69,1701.46,47.39Z"/><path class="cls-2" d="M1734.8,189.74s-50.75-27.18-35.78-79.64S1707.1,150.05,1734.8,189.74Z"/><path class="cls-1" d="M1707.89,112.58s13.06,42.7,67,36.47C1774.85,149.05,1777.43,83.56,1707.89,112.58Z"/><path class="cls-1" d="M1625.7,135.68s66.41,21.2,113.84-20.88C1739.54,114.8,1676.36,63.24,1625.7,135.68Z"/><path class="cls-2" d="M1780.71,162.87s-26.81,25.83-73.07-12.17C1707.64,150.7,1695.35,93,1780.71,162.87Z"/><path class="cls-1" d="M1704,200.84s-13.06-42.7-67-36.47C1637,164.37,1634.44,229.86,1704,200.84Z"/><path class="cls-2" d="M1661.26,201.37s50.38,27.9,84.73-14S1709,202.77,1661.26,201.37Z"/><path class="cls-1" d="M1788.57,156.28s-66.41-21.21-113.85,20.87C1674.72,177.15,1737.91,228.72,1788.57,156.28Z"/><path class="cls-2" d="M1738.11,99.31s50.75,27.18,35.79,79.64S1765.81,139,1738.11,99.31Z"/><path class="cls-1" d="M1600.4,190.65s42-12.7,66.95,36.47C1667.35,227.12,1615.51,265.78,1600.4,190.65Z"/><path class="cls-2" d="M1623.75,227.17S1573,200,1588,147.53,1596,187.48,1623.75,227.17Z"/><path class="cls-1" d="M1589.54,94.11s54.24,44.5,46.42,108.15C1636,202.26,1558.82,177.4,1589.54,94.11Z"/><path class="cls-2" d="M1664,105.17s-50.39-27.9-84.73,14S1616.28,103.78,1664,105.17Z"/><path class="cls-2" d="M1681.87,224.39s6.08-37.11-50.6-55.17C1631.27,169.22,1577.5,190.9,1681.87,224.39Z"/><path class="cls-2" d="M1726.05,124.71s-26.81,25.83-73.07-12.17C1653,112.54,1640.68,54.87,1726.05,124.71Z"/><path class="cls-1" d="M1676.69,72.79s42-12.71,67,36.46C1743.64,109.25,1691.79,147.91,1676.69,72.79Z"/><path class="cls-1" d="M1588.16-49.48S1642.4-5,1634.57,58.68C1634.57,58.68,1557.44,33.82,1588.16-49.48Z"/><path class="cls-1" d="M1619.74,81.65s13.06,42.7,67,36.47C1686.69,118.12,1689.27,52.63,1619.74,81.65Z"/><path class="cls-2" d="M1650,68.38s50.76,27.18,35.79,79.64S1677.66,108.06,1650,68.38Z"/><path class="cls-1" d="M1775.44,165.75s66.41,21.21,113.84-20.87C1889.28,144.88,1826.1,93.31,1775.44,165.75Z"/><path class="cls-2" d="M1825.9,222.72s-50.76-27.18-35.79-79.64S1798.19,183,1825.9,222.72Z"/><path class="cls-2" d="M1631.15,150.55s26.81-25.83,73.07,12.17C1704.22,162.72,1716.52,220.39,1631.15,150.55Z"/><path class="cls-2" d="M1648.6,223.55s26.82-25.83,73.07,12.17C1721.67,235.72,1734,293.39,1648.6,223.55Z"/><path class="cls-1" d="M1671.65,247.49s42-12.71,67,36.46C1738.61,284,1686.76,322.61,1671.65,247.49Z"/><path class="cls-1" d="M1667.88,15s52.41-42.1,114.21-19.23C1782.09-4.28,1745.59,64.82,1667.88,15Z"/><path class="cls-2" d="M1813.91,16.63s-34.73,42.87-84.34,15.73S1770.36,34.07,1813.91,16.63Z"/><path class="cls-2" d="M1707.57-41.66S1729-9.38,1684.24,26.52C1684.24,26.52,1625.27,24.66,1707.57-41.66Z"/><path class="cls-1" d="M1733.4,24.32s44.27-2.47,46.42-56.41C1779.82-32.09,1715.39-50.3,1733.4,24.32Z"/><path class="cls-1" d="M1743.58,109.83s31.23-59.53-3.11-115.77C1740.47-5.94,1679.69,43.17,1743.58,109.83Z"/><path class="cls-2" d="M1794.4-34.48s21.43,32.28-23.32,68.18C1771.08,33.7,1712.11,31.84,1794.4-34.48Z"/><path class="cls-1" d="M1789.09-43.7s-31.24,59.53,3.1,115.77C1792.19,72.07,1853,23,1789.09-43.7Z"/><path class="cls-2" d="M1748.2,9.56s21.43,32.28-23.32,68.18C1724.88,77.74,1665.91,75.88,1748.2,9.56Z"/><path class="cls-1" d="M1689.2,45.14s-6.1-43.92,46.41-56.4C1735.61-11.26,1765.88,48.45,1689.2,45.14Z"/><path class="cls-2" d="M1728.94,31.18s-34.73,42.87-84.35,15.73S1685.38,48.62,1728.94,31.18Z"/><path class="cls-1" d="M1592,32.56s52.41-42.1,114.21-19.23C1706.17,13.33,1669.67,82.42,1592,32.56Z"/><path class="cls-2" d="M1614.4-37.23s-35.39,42.34.79,85.8S1605.66,8.87,1614.4-37.23Z"/><path class="cls-2" d="M1735.16-26s-35.8-14.82-62.42,36C1672.74,10,1685.91,67.48,1735.16-26Z"/><path class="cls-1" d="M1623.67,93.32s52.41-42.11,114.21-19.24C1737.88,74.08,1701.37,143.18,1623.67,93.32Z"/><path class="cls-2" d="M1663.35,36.7S1684.78,69,1640,104.88C1640,104.88,1581.06,103,1663.35,36.7Z"/><path class="cls-1" d="M1689.18,102.68s44.28-2.47,46.42-56.4C1735.6,46.28,1671.18,28.07,1689.18,102.68Z"/><path class="cls-2" d="M1680.7,70.1s34.74-42.87,84.35-15.73S1724.26,52.65,1680.7,70.1Z"/><path class="cls-2" d="M1553.45,23.78s28.34-33.93.84-67.53S1561.06-12.66,1553.45,23.78Z"/><path class="cls-1" d="M1539,25s4,34.48-37.2,45.2C1501.79,70.19,1479.19,23.69,1539,25Z"/><path class="cls-2" d="M1507.73,36.66s27.84-34.34,66.1-13.82S1542,22.18,1507.73,36.66Z"/><path class="cls-1" d="M1660.6,16.26s-52.41,42.1-114.21,19.23C1546.39,35.49,1582.89-33.6,1660.6,16.26Z"/><path class="cls-2" d="M1638.16,86.05s35.39-42.33-.79-85.8S1646.9,40,1638.16,86.05Z"/><path class="cls-2" d="M1501.9,81.81s27.69,11.06,49.33-29.41C1551.23,52.4,1541.93,7.35,1501.9,81.81Z"/><path class="cls-1" d="M1591-14S1549.33,20,1501.48,3C1501.48,3,1531.16-52,1591-14Z"/><path class="cls-2" d="M1559,31.19s-16.18-25,19.37-54.07C1578.39-22.88,1624.39-22.42,1559,31.19Z"/><path class="cls-2" d="M1729.54,155.6s-26.81,25.82-73.07-12.18C1656.47,143.42,1644.18,85.75,1729.54,155.6Z"/><path class="cls-1" d="M1616.79,47.35s54.24,44.5,46.42,108.15C1663.21,155.5,1586.07,130.64,1616.79,47.35Z"/><path class="cls-2" d="M1650.14,189.69s-50.75-27.18-35.79-79.64S1622.43,150,1650.14,189.69Z"/><path class="cls-1" d="M1623.23,112.54s13.06,42.69,67,36.46C1690.18,149,1692.76,83.51,1623.23,112.54Z"/><path class="cls-2" d="M1696.05,162.82s-26.81,25.83-73.07-12.17C1623,150.65,1610.69,93,1696.05,162.82Z"/><path class="cls-2" d="M1653.44,99.26s50.76,27.18,35.79,79.64S1681.15,139,1653.44,99.26Z"/><path class="cls-2" d="M1641.38,124.66s-26.81,25.83-73.07-12.17C1568.31,112.49,1556,54.82,1641.38,124.66Z"/><path class="cls-1" d="M1592,72.74s42-12.7,67,36.46C1659,109.2,1607.13,147.86,1592,72.74Z"/><path class="cls-1" d="M1493.17-15.88s41.57,34.11,34.38,84.36C1527.55,68.48,1467.76,50.23,1493.17-15.88Z"/><path class="cls-2" d="M1565.29,68.33S1616,95.51,1601.08,148,1593,108,1565.29,68.33Z"/><path class="cls-2" d="M1679.7-46.81s21.43,32.28-23.32,68.18C1656.38,21.37,1597.41,19.51,1679.7-46.81Z"/><path class="cls-1" d="M1508.31,4s41.63-34,89.48-17.09C1597.79-13.06,1568.12,42,1508.31,4Z"/><path class="cls-1" d="M1555.17,36.94s52.41-42.1,114.21-19.23C1669.38,17.71,1632.88,86.81,1555.17,36.94Z"/><path class="cls-2" d="M1701.2,38.62s-34.73,42.87-84.34,15.73S1657.65,56.07,1701.2,38.62Z"/><path class="cls-2" d="M1564,6.07s16.17,25.05-19.37,54.08C1544.6,60.15,1498.6,59.69,1564,6.07Z"/><path class="cls-1" d="M1620.69,46.31s44.27-2.47,46.42-56.4C1667.11-10.09,1602.68-28.3,1620.69,46.31Z"/><path class="cls-1" d="M1630.86,131.82s31.24-59.53-3.1-115.77C1627.76,16.05,1567,65.16,1630.86,131.82Z"/><path class="cls-2" d="M1681.69-12.49s21.43,32.28-23.32,68.18C1658.37,55.69,1599.4,53.83,1681.69-12.49Z"/><path class="cls-1" d="M1676.38-21.71s-31.24,59.53,3.1,115.77C1679.48,94.06,1740.26,44.94,1676.38-21.71Z"/><path class="cls-2" d="M1612.21,13.73S1646.94-29.14,1696.55-2,1655.76-3.72,1612.21,13.73Z"/><path class="cls-2" d="M1635.49,31.55s21.43,32.28-23.32,68.18C1612.17,99.73,1553.2,97.87,1635.49,31.55Z"/><path class="cls-1" d="M1576.48,67.13s-6.09-43.92,46.42-56.4C1622.9,10.73,1653.17,70.44,1576.48,67.13Z"/><path class="cls-2" d="M1616.23,53.17S1581.49,96,1531.88,68.9,1572.67,70.61,1616.23,53.17Z"/><path class="cls-1" d="M1472.46,66.48s41.63-34,89.48-17.09C1561.94,49.39,1532.27,104.41,1472.46,66.48Z"/><path class="cls-2" d="M1491.17,11.15s-28.35,33.93-.85,67.53S1483.56,47.59,1491.17,11.15Z"/><path class="cls-2" d="M1585.24,17.9s-27.69-11.06-49.34,29.41C1535.9,47.31,1545.2,92.36,1585.24,17.9Z"/><path class="cls-1" d="M1576.47,124.67s44.28-2.47,46.42-56.4C1622.89,68.27,1558.47,50.06,1576.47,124.67Z"/><path class="cls-2" d="M1568,92.09s34.74-42.87,84.35-15.73S1611.55,74.64,1568,92.09Z"/><path class="cls-1" d="M1526.32,52.47s-41.63,34-89.48,17.09C1436.84,69.56,1466.51,14.54,1526.32,52.47Z"/><path class="cls-1" d="M1582.15.62s25.4-47.4-.44-91.1C1581.71-90.48,1533.43-50.77,1582.15.62Z"/><path class="cls-2" d="M1620.41-39.43S1592.72-50.49,1571.07-10C1571.07-10,1580.37,35,1620.41-39.43Z"/><path class="cls-2" d="M1581.25,21.41s-21.37,20.79-56.83-8.34C1524.42,13.07,1515.81-32.12,1581.25,21.41Z"/><path class="cls-1" d="M1495.09-61.89s41.57,34.11,34.38,84.36C1529.47,22.47,1469.68,4.21,1495.09-61.89Z"/><path class="cls-2" d="M1518.69,49.61s-39.16-20.54-26.58-62.09S1497.74,18.83,1518.69,49.61Z"/><path class="cls-1" d="M1499-10.68s9.46,33.39,51.64,27.57C1550.64,16.89,1553.77-34.72,1499-10.68Z"/><path class="cls-2" d="M1555,27.67s-21.37,20.79-56.83-8.34C1498.15,19.33,1489.54-25.86,1555,27.67Z"/><path class="cls-2" d="M1522.81-21.65S1562-1.11,1549.39,40.44,1543.76,9.13,1522.81-21.65Z"/><path class="cls-1" d="M1678.74,16.14s-31.23,59.53,3.1,115.77C1681.84,131.91,1742.62,82.79,1678.74,16.14Z"/><path class="cls-2" d="M1630.82,66s35.8,14.82,62.42-36C1693.24,30,1680.06-27.55,1630.82,66Z"/><path class="cls-2" d="M1667.43,37.91s35.79,14.82,62.41-36C1729.84,1.91,1716.67-55.6,1667.43,37.91Z"/><path class="cls-1" d="M1691-26.84s-44.28,2.48-46.42,56.41C1644.57,29.57,1709,47.78,1691-26.84Z"/><path class="cls-2" d="M1684.93,14.85s35.38-42.33-.79-85.79S1693.67-31.25,1684.93,14.85Z"/><path class="cls-2" d="M1560-61.51s-28.34,33.93-.85,67.53S1552.42-25.07,1560-61.51Z"/><path class="cls-2" d="M1630,32S1608.55-.32,1653.3-36.21C1653.3-36.21,1712.27-34.35,1630,32Z"/><path class="cls-1" d="M1725.65-100.41s-31.23,59.54,3.1,115.78C1728.75,15.37,1789.53-33.75,1725.65-100.41Z"/><path class="cls-2" d="M1755.39,42.57s35.39-42.33-.79-85.79S1764.13-3.52,1755.39,42.57Z"/><path class="cls-1" d="M1747.45-37.92S1753.54,6,1701,18.49C1701,18.49,1670.76-41.23,1747.45-37.92Z"/><path class="cls-2" d="M1701.49,33.26s35.79,14.82,62.41-36C1763.9-2.74,1750.73-60.26,1701.49,33.26Z"/><path class="cls-1" d="M1691.41,29.82s52.41-42.1,114.21-19.23C1805.62,10.59,1769.11,79.68,1691.41,29.82Z"/><path class="cls-2" d="M1713.84-40s-35.38,42.33.79,85.79S1705.1,6.13,1713.84-40Z"/><path class="cls-2" d="M1547.88,20.9S1575.57,32,1597.22-8.51C1597.22-8.51,1587.92-53.56,1547.88,20.9Z"/><path class="cls-1" d="M1611.64-40.17s4,34.48-37.2,45.2C1574.44,5,1551.84-41.46,1611.64-40.17Z"/><path class="cls-2" d="M1621.06-79.15s-35.38,42.33.8,85.79S1612.33-33.06,1621.06-79.15Z"/><path class="cls-1" d="M1707.59,34.14s-52.41,42.1-114.21,19.23C1593.38,53.37,1629.89-15.72,1707.59,34.14Z"/><path class="cls-2" d="M1685.16,103.93s35.38-42.33-.79-85.8S1693.9,57.83,1685.16,103.93Z"/><path class="cls-2" d="M1636.2,30s-21.42-32.28,23.33-68.18C1659.53-38.18,1718.5-36.32,1636.2,30Z"/><path class="cls-1" d="M436.37,181S454.64,72.92,537.57,37.44C537.57,37.44,558.51,163.14,436.37,181Z"/><path class="cls-2" d="M588,30.74s.56,90.6-73.44,108S558,98.31,588,30.74Z"/><path class="cls-1" d="M511.69,124.51s43.44-49.33,0-120C511.69,4.55,430,48.68,511.69,124.51Z"/><path class="cls-2" d="M524.66-13.71S574,4.86,558.39,97.08C558.39,97.08,496.15,156.26,524.66-13.71Z"/><path class="cls-2" d="M340-3.92s-49.37,18.57-33.72,110.79C306.32,106.87,368.55,166.05,340-3.92Z"/><path class="cls-1" d="M370.62,102.77s43.45-49.33,0-120C370.62-17.19,288.94,27,370.62,102.77Z"/><path class="cls-2" d="M341.56,43.59s-.56,90.6,73.44,108S371.59,111.16,341.56,43.59Z"/><path class="cls-2" d="M383.6-35.45S433-16.88,417.32,75.34C417.32,75.34,355.09,134.52,383.6-35.45Z"/><path class="cls-1" d="M321.92,175.74s-43.45-49.33,0-120C321.92,55.78,403.61,99.92,321.92,175.74Z"/><path class="cls-2" d="M358.23,143.28s.56-90.6-73.45-108S328.19,75.71,358.23,143.28Z"/><path class="cls-2" d="M517.35,152.6s-21.37,20.79-56.83-8.34C460.52,144.26,451.91,99.07,517.35,152.6Z"/><path class="cls-1" d="M431.19,69.3s41.57,34.11,34.38,84.36C465.57,153.66,405.78,135.4,431.19,69.3Z"/><path class="cls-2" d="M517.56,105.21S490.75,131,444.49,93C444.49,93,432.19,35.36,517.56,105.21Z"/><path class="cls-1" d="M435.1,120.51s9.46,33.39,51.64,27.57C486.74,148.08,489.87,96.47,435.1,120.51Z"/><path class="cls-2" d="M458.91,109.54s39.15,20.54,26.58,62.09S479.86,140.31,458.91,109.54Z"/><path class="cls-1" d="M456,76.63s66.41,21.2,113.85-20.88C569.88,55.75,506.7,4.19,456,76.63Z"/><path class="cls-1" d="M450.07,22.6s13.06,42.7,67,36.47C517,59.07,519.61-6.42,450.07,22.6Z"/><path class="cls-1" d="M426,56.31S478.37,14.2,540.17,37.07C540.17,37.07,503.66,106.17,426,56.31Z"/><path class="cls-2" d="M465.64-.31S487.07,32,442.32,67.87C442.32,67.87,383.35,66,465.64-.31Z"/><path class="cls-2" d="M422.61,48.8s28.35-33.93.85-67.53S430.22,12.36,422.61,48.8Z"/><path class="cls-2" d="M531.83,118.59S505,144.41,458.76,106.41C458.76,106.41,446.46,48.74,531.83,118.59Z"/><path class="cls-1" d="M419.08,10.34s54.24,44.5,46.42,108.15C465.5,118.49,388.36,93.63,419.08,10.34Z"/><path class="cls-2" d="M430.19,130.19S391,109.66,403.62,68.1,409.24,99.42,430.19,130.19Z"/><path class="cls-1" d="M425.52,75.53s13.06,42.69,67,36.46C492.47,112,495.05,46.5,425.52,75.53Z"/><path class="cls-1" d="M346,89.49s51.47,15.56,89.22-18.38C435.17,71.11,386.73,31.6,346,89.49Z"/><path class="cls-2" d="M466.49,108.26s-21.37,20.79-56.83-8.34C409.66,99.92,401,54.73,466.49,108.26Z"/><path class="cls-2" d="M455.73,62.25s50.76,27.18,35.79,79.64S483.44,101.94,455.73,62.25Z"/><path class="cls-2" d="M424.47,79.14s-21.37,20.8-56.83-8.33C367.64,70.81,359,25.62,424.47,79.14Z"/><path class="cls-1" d="M394.32,35.73s42-12.7,66.95,36.46C461.27,72.19,409.42,110.85,394.32,35.73Z"/><path class="cls-1" d="M342.22,47.06s9.46,33.39,51.64,27.56C393.86,74.62,397,23,342.22,47.06Z"/><path class="cls-2" d="M366,36.09s39.15,20.53,26.58,62.09S387,66.86,366,36.09Z"/><path class="cls-2" d="M443.08,145.46s-5.71-60.72-85.47-60.81C357.61,84.65,296.15,144.94,443.08,145.46Z"/><path class="cls-1" d="M235.47,165.07s93.46.17,139.3-88.71C374.77,76.36,274.38,27.39,235.47,165.07Z"/><path class="cls-2" d="M390.27,19.38S315.05.88,286,83,328.17,40.79,390.27,19.38Z"/><path class="cls-1" d="M297.27,89.13S346.85,48.62,397,112.76C397,112.76,344.23,198.49,297.27,89.13Z"/><path class="cls-1" d="M232.27-25.93s86.26,42.41,99.43,145.27C331.7,119.34,223.06,118.79,232.27-25.93Z"/><path class="cls-2" d="M414.75,101.35S409,40.62,329.28,40.54C329.28,40.54,267.81,100.83,414.75,101.35Z"/><path class="cls-2" d="M317.11,137.49S392.33,156,421.35,73.85,379.21,116.08,317.11,137.49Z"/><path class="cls-2" d="M326.21,92.69S320.5,32,240.74,31.88C240.74,31.88,179.28,92.18,326.21,92.69Z"/><path class="cls-1" d="M231.48,107s32.46,59.94,99.74,23.63C331.22,130.66,310.62,27.53,231.48,107Z"/><path class="cls-1" d="M180.4,36.36S230-4.15,280.14,60C280.14,60,227.36,145.72,180.4,36.36Z"/><path class="cls-2" d="M200.24,84.72s75.23,18.5,104.24-63.64S262.34,63.31,200.24,84.72Z"/><path class="cls-2" d="M245.77,832.73S229,796.61,170.89,816.09C170.89,816.09,138.63,868.39,245.77,832.73Z"/><path class="cls-2" d="M297.67,746.61s-21.2-47.2-93.63-22.22C204,724.39,164.13,792.34,297.67,746.61Z"/><path class="cls-1" d="M215.45,787.93s45.27,38.17,96.78-12.27C312.23,775.66,266.33,698.94,215.45,787.93Z"/><path class="cls-2" d="M259.53,753s-73.17,8.7-77.85,84.07S208.8,789.75,259.53,753Z"/><path class="cls-2" d="M260.32,719.92s-21.21-47.2-93.64-22.22C166.68,697.7,126.78,765.65,260.32,719.92Z"/><path class="cls-1" d="M332.13,956.35s-89.5-7.13-128.59-86C203.54,870.37,302.33,836.7,332.13,956.35Z"/><path class="cls-1" d="M204.67,870s34.33-48.25,96.78-12.26C301.45,857.78,276.14,943.53,204.67,870Z"/><path class="cls-1" d="M162.85,802.93s71.64,5.08,102.6,65.4C265.45,868.33,186.2,894.59,162.85,802.93Z"/><path class="cls-2" d="M231.72,766.32s-58.63,7-62.7,64.83S190.94,794.75,231.72,766.32Z"/><path class="cls-1" d="M206.47,853.08s84.9-29.22,103.08-115.32C309.55,737.76,205.49,729.78,206.47,853.08Z"/><path class="cls-2" d="M298.69,848.58s-21.2-47.2-93.63-22.22C205.06,826.36,165.15,894.31,298.69,848.58Z"/><path class="cls-2" d="M196.34,673s-49.49,15.1-33.81,90.1C162.53,763.08,224.93,811.21,196.34,673Z"/><path class="cls-2" d="M68.49,838.64s.43-59-56.44-70.36S45.41,794.6,68.49,838.64Z"/><path class="cls-1" d="M194.94,809.15s89.5,7.12,128.58,86C323.52,895.12,224.74,928.8,194.94,809.15Z"/><path class="cls-2" d="M280.68,761.9s-73.17,8.71-77.85,84.08S230,798.68,280.68,761.9Z"/><path class="cls-2" d="M44.45,902.74s.43-59-56.44-70.36S21.37,858.71,44.45,902.74Z"/><path class="cls-1" d="M30.57,916.26s33.39,32.15,0,78.18C30.57,994.44-32.2,965.68,30.57,916.26Z"/><path class="cls-2" d="M8.24,954.83s-.43-59.05,56.44-70.36S31.32,910.79,8.24,954.83Z"/><path class="cls-1" d="M115.61,860.53s-14,70.44-77.77,93.57C37.84,954.1,21.75,872.17,115.61,860.53Z"/><path class="cls-2" d="M143.28,933.46s.43-59.05-56.44-70.36S120.2,889.42,143.28,933.46Z"/><path class="cls-2" d="M40.54,1006.34s37.94-12.1,25.92-72.2C66.46,934.14,18.63,895.57,40.54,1006.34Z"/><path class="cls-1" d="M51,831.89s-14,70.44-77.77,93.56C-26.74,925.45-42.83,843.53,51,831.89Z"/><path class="cls-2" d="M56.49,905.66s-37.94-12.1-25.92-72.2C30.57,833.46,78.4,794.89,56.49,905.66Z"/><path class="cls-2" d="M8.24,1040.3s-.43-59,56.44-70.36S31.32,996.27,8.24,1040.3Z"/><path class="cls-1" d="M22.12,1053.82s-33.39,32.15,0,78.18C22.12,1132,84.89,1103.24,22.12,1053.82Z"/><path class="cls-2" d="M44.45,1092.39S44.88,1033.34-12,1022,21.37,1048.35,44.45,1092.39Z"/><path class="cls-2" d="M127,1059.76s-37.94-12.1-25.92-72.2C101.08,987.56,148.91,949,127,1059.76Z"/><path class="cls-1" d="M1.66,969.45s14,70.44,77.77,93.56C79.43,1063,95.52,981.09,1.66,969.45Z"/><path class="cls-2" d="M-3.8,1043.22s37.94-12.1,25.92-72.2C22.12,971-25.71,932.45-3.8,1043.22Z"/><path class="cls-1" d="M104.06,1050.57s-71.82-.11-107,57.81C-3,1108.38,74.16,1140.29,104.06,1050.57Z"/><path class="cls-1" d="M199.27,1065.51s-14-70.43-77.77-93.56C121.5,972,105.41,1053.87,199.27,1065.51Z"/><path class="cls-2" d="M13.75,643.17s-37.94,12.1-25.92,72.2C-12.17,715.37,35.66,753.94,13.75,643.17Z"/><path class="cls-2" d="M3.06,691.25s-37.93,12.1-25.91,72.2C-22.85,763.45,25,802,3.06,691.25Z"/><path class="cls-1" d="M26.56,760.78s33.39-32.15,0-78.18C26.56,682.6-36.21,711.36,26.56,760.78Z"/><path class="cls-2" d="M4.23,722.21s-.43,59,56.44,70.36S27.31,766.25,4.23,722.21Z"/><path class="cls-1" d="M111.61,816.51s-14-70.44-77.77-93.56C33.84,723,17.75,804.87,111.61,816.51Z"/><path class="cls-2" d="M159.31,755.83s.43-59-56.44-70.36S136.23,711.8,159.31,755.83Z"/><path class="cls-2" d="M36.54,670.7s37.93,12.1,25.91,72.2C62.45,742.9,14.63,781.47,36.54,670.7Z"/><path class="cls-1" d="M47,845.15s-14-70.43-77.77-93.56C-30.75,751.59-46.84,833.51,47,845.15Z"/><path class="cls-2" d="M52.48,771.38s-37.94,12.1-25.92,72.2C26.56,843.58,74.39,882.15,52.48,771.38Z"/><path class="cls-1" d="M-10.86,808.33s-33.39-32.15,0-78.17C-10.86,730.16,51.91,758.92-10.86,808.33Z"/><path class="cls-1" d="M10.54,855.6s33.38-32.15,0-78.18C10.54,777.42-52.23,806.19,10.54,855.6Z"/><path class="cls-2" d="M-11.8,817s-.43,59,56.44,70.36S11.28,861.07-11.8,817Z"/><path class="cls-1" d="M95.58,911.33s-14-70.43-77.77-93.56C17.81,817.77,1.72,899.69,95.58,911.33Z"/><path class="cls-2" d="M123.25,838.4s.43,59.05-56.44,70.36S100.17,882.44,123.25,838.4Z"/><path class="cls-2" d="M20.51,765.53s37.94,12.1,25.92,72.2C46.43,837.73-1.4,876.29,20.51,765.53Z"/><path class="cls-2" d="M36.45,866.21s-37.93,12.1-25.91,72.2C10.54,938.41,58.36,977,36.45,866.21Z"/><path class="cls-2" d="M101.89,660.53S64,672.63,76,732.73C76,732.73,123.8,771.3,101.89,660.53Z"/><path class="cls-1" d="M-8.18,864.18s-33.39,32.15,0,78.17C-8.18,942.35,54.59,913.59-8.18,864.18Z"/><path class="cls-1" d="M105.77,825.81s14,70.43,77.77,93.56C183.54,919.37,199.63,837.45,105.77,825.81Z"/><path class="cls-2" d="M-24.73,778.54s-.43-59,56.44-70.36S-1.65,734.5-24.73,778.54Z"/><path class="cls-1" d="M165.88,685s-14,70.44-77.77,93.56C88.11,778.54,72,696.62,165.88,685Z"/><path class="cls-2" d="M215.82,1000.24s.43-59-56.44-70.36S192.74,956.2,215.82,1000.24Z"/><path class="cls-1" d="M.27,1001.74s33.39,32.15,0,78.17C.27,1079.91-62.5,1051.15.27,1001.74Z"/><path class="cls-2" d="M159.31,945.48s.43-59.05-56.44-70.36S136.23,901.44,159.31,945.48Z"/><path class="cls-1" d="M51.93,851.18s14,70.44,77.77,93.57C129.7,944.75,145.79,862.82,51.93,851.18Z"/><path class="cls-2" d="M24.26,924.11s-.43-59,56.44-70.36S47.34,880.08,24.26,924.11Z"/><path class="cls-2" d="M10.24,1091.81s37.94-12.1,25.92-72.2C36.16,1019.61-11.67,981.05,10.24,1091.81Z"/><path class="cls-1" d="M214.38,791.82s-14,70.44-77.77,93.57C136.61,885.39,120.52,803.46,214.38,791.82Z"/><path class="cls-2" d="M26.19,991.13S-11.75,979,.27,918.93C.27,918.93,48.1,880.37,26.19,991.13Z"/><path class="cls-1" d="M88,777.62s-33.39-32.15,0-78.18C88,699.44,150.74,728.2,88,777.62Z"/><path class="cls-2" d="M115.87,756.46s.43-59-56.44-70.36S92.79,712.42,115.87,756.46Z"/><path class="cls-1" d="M-26.23,721.69s14-70.44,77.77-93.57C51.54,628.12,67.63,710.05-26.23,721.69Z"/><path class="cls-2" d="M178.49,819.71s-.44,59,56.43,70.36S201.57,863.74,178.49,819.71Z"/><path class="cls-1" d="M38.35,750.33s14-70.44,77.77-93.56C116.12,656.77,132.21,738.69,38.35,750.33Z"/><path class="cls-2" d="M32.9,676.56s37.93,12.1,25.91,72.2C58.81,748.76,11,787.33,32.9,676.56Z"/><path class="cls-1" d="M68.79,1031.14S2.5,1003.5-7.62,936.46C-7.62,936.46,75.87,936.82,68.79,1031.14Z"/><path class="cls-2" d="M-3.4,953.83S1,993.41,62.28,993.46C62.28,993.46,109.51,954.17-3.4,953.83Z"/><path class="cls-1" d="M69.39,944.49s-24.94-39.07-76.64-15.4C-7.25,929.09,8.58,996.3,69.39,944.49Z"/><path class="cls-1" d="M69.25,938.38s71.82-.11,107.05,57.82C176.3,996.2,99.15,1028.11,69.25,938.38Z"/><path class="cls-1" d="M108.65,990.55S70.55,1017,32,975.15C32,975.15,72.56,919.27,108.65,990.55Z"/><path class="cls-2" d="M93.4,959S35.6,947,13.3,1000.5,45.68,973,93.4,959Z"/><path class="cls-2" d="M184.44,1029.56s.56-73.69-73.63-87.81S154.33,974.6,184.44,1029.56Z"/><path class="cls-1" d="M163.66,746.28S145.35,834.17,62.21,863C62.21,863,41.22,760.8,163.66,746.28Z"/><path class="cls-1" d="M340.33,904.61s-89.5-7.12-128.58-86C211.75,818.64,310.53,785,340.33,904.61Z"/><path class="cls-1" d="M285.27,835.48S240,797.31,188.48,847.74C188.48,847.74,234.38,924.47,285.27,835.48Z"/><path class="cls-2" d="M263.65,874.9s-73,9.83-96.36-62S205.35,851.94,263.65,874.9Z"/><path class="cls-1" d="M70.2,894.15s-14-70.44-77.76-93.57C-7.56,800.58-23.66,882.51,70.2,894.15Z"/><path class="cls-2" d="M97.87,821.22s.43,59-56.44,70.36S74.79,865.26,97.87,821.22Z"/><path class="cls-2" d="M-4.87,748.34s37.94,12.1,25.92,72.2C21.05,820.54-26.78,859.11-4.87,748.34Z"/><path class="cls-2" d="M11.08,849s-37.94,12.1-25.92,72.2C-14.84,921.22,33,959.79,11.08,849Z"/><path class="cls-1" d="M256.69,692.84s33.39-32.15,0-78.17C256.69,614.67,193.92,643.43,256.69,692.84Z"/><path class="cls-1" d="M72,747.88S90.32,660,173.45,631.12C173.45,631.12,194.44,733.36,72,747.88Z"/><path class="cls-2" d="M266.67,602.77s37.93,12.1,25.91,72.2C292.58,675,244.76,713.54,266.67,602.77Z"/><path class="cls-1" d="M174.76,696.1s71.82.11,107-57.81C281.8,638.29,204.66,606.37,174.76,696.1Z"/><path class="cls-2" d="M146.37,814.6s.43-59.05-56.44-70.36S123.29,770.56,146.37,814.6Z"/></svg>