<svg id="Layer_1" data-name="Layer 1" xmlns="http://www.w3.org/2000/svg" viewBox="0 0 822 797"><defs><style>.cls-1{fill:none;stroke:#000;stroke-miterlimit:10;stroke-width:4px;}.cls-2{fill:#ffe4d3;}</style></defs><path class="cls-1" d="M73.91,365.43,402,37s31-31,65-3L745.09,366.7"/><rect class="cls-2" x="13" y="350" width="793" height="432" rx="12"/><path d="M137.31,418H101.87V404h85.79v14H152.23V514H137.31Z"/><path d="M217.51,404h14.92v45.69h57V404h14.92V514H289.47V463.64h-57V514H217.51Z"/><path d="M381.17,404h13.52l47.1,110H424.38l-11-27.2H361L350.08,514h-17.4Zm26.74,69.78-20.52-50.51h-.31l-20.83,50.51Z"/><path d="M470.08,404h19.58l60.62,90.46h.31V404h14.92V514h-19l-61.24-90.46H485V514H470.08Z"/><path d="M607.78,404h14.93v47.56H624L672.6,404h20.82l-53.15,50.82L697,514H675.24L624,459h-1.24v55H607.78Z"/><path d="M172.81,652.79,102.28,546h32.37l50.79,81.84L237.8,546h30.79L198.07,652.79v79.47H172.81Z"/><path d="M399.12,737a100.44,100.44,0,0,1-39.21-7.5,91.35,91.35,0,0,1-30.66-20.65,95.5,95.5,0,0,1-20-31.06,107.11,107.11,0,0,1,0-77.37,95.56,95.56,0,0,1,20-31,91.2,91.2,0,0,1,30.66-20.65,106.11,106.11,0,0,1,78.42,0A91.3,91.3,0,0,1,469,569.37a95.89,95.89,0,0,1,20,31,107.11,107.11,0,0,1,0,77.37,95.83,95.83,0,0,1-20,31.06,91.45,91.45,0,0,1-30.66,20.65A100.44,100.44,0,0,1,399.12,737Zm0-23.68a67.8,67.8,0,0,0,51.05-21.85,70,70,0,0,0,14.21-23.55,85.53,85.53,0,0,0,0-57.63,70.23,70.23,0,0,0-14.21-23.55,69.78,69.78,0,0,0-102.1,0,70.06,70.06,0,0,0-14.21,23.55,85.53,85.53,0,0,0,0,57.63,69.87,69.87,0,0,0,14.21,23.55,67.75,67.75,0,0,0,51.05,21.85Z"/><path d="M578.06,546V660.16a73.73,73.73,0,0,0,2.36,18,52,52,0,0,0,7.9,17.23,42.69,42.69,0,0,0,14.47,12.9q8.94,5,22.1,5t22.11-5a42.79,42.79,0,0,0,14.47-12.9,52,52,0,0,0,7.9-17.23,73.27,73.27,0,0,0,2.37-18V546H697V664.11a76.27,76.27,0,0,1-5.53,29.6,70.35,70.35,0,0,1-15.26,23,67.41,67.41,0,0,1-22.89,15,79.41,79.41,0,0,1-56.84,0,67.36,67.36,0,0,1-22.9-15,70.35,70.35,0,0,1-15.26-23,76.27,76.27,0,0,1-5.53-29.6V546Z"/><rect class="cls-1" x="31.17" y="365.67" width="755.9" height="400.62" rx="12"/></svg>