<svg id="Layer_1" data-name="Layer 1" xmlns="http://www.w3.org/2000/svg" viewBox="0 0 400.27 300.1"><defs><style>.cls-1{fill:#f5c2ad;}</style></defs><path class="cls-1" d="M168.27,300.1H184l.23-257S177.5-.1,156.38,0L17.13,70.62A24,24,0,0,0,6.15,82C3.54,87.7.58,95.64.12,103.2c-.85,13.9,3.15,196.9,3.15,196.9h16l-3-196s1-17,7-21,127-64,127-64,11-2,17,26Z"/><path class="cls-1" d="M384.27,300.1H400l.23-257S393.5-.1,372.38,0L233.13,70.62a24,24,0,0,0-11,11.4c-2.61,5.68-5.57,13.62-6,21.18-.85,13.9,3.15,196.9,3.15,196.9h16l-3-196s1-17,7-21,127-64,127-64,11-2,17,26Z"/><rect class="cls-1" x="17.23" y="166.78" width="150.52" height="19.46"/><rect class="cls-1" x="233.23" y="166.78" width="150.52" height="19.46"/></svg>