<svg id="Layer_1" data-name="Layer 1" xmlns="http://www.w3.org/2000/svg" viewBox="0 0 889 1058"><defs><style>.cls-1{fill:#614332;}.cls-2{fill:#fff1f7;}.cls-3{fill:#4e3023;}.cls-4{fill:#42210b;}.cls-5{fill:#4c2c1b;}.cls-6{fill:#ccc;}</style></defs><polygon class="cls-1" points="169.89 736.79 651.68 706.88 522.12 626.96 197.91 645.46 138.33 658.52 95.86 681.87 169.89 736.79"/><path class="cls-2" d="M428.4,162.31S190.94,713,55.86,748.38c0,0,154.81,222.53,152.29,308.38L.31,1064,1.57,589.07S133.7,199.54,428.4,162.31Z"/><path class="cls-1" d="M-9,353.36S311.57,15,452.47,1c0,0,407.55,323.49,422.73,531.57V1064H757.56s-7-486.11-31.4-531.5S601.68,228.2,431.5,162.31c0,0-293.09,51.45-440.5,444.34Z"/><polygon class="cls-3" points="169.89 736.79 169.89 866.36 619.33 842.84 651.68 706.88 169.89 736.79"/><path class="cls-4" d="M452.47,1S3.41,18.58-8,46.5L-9,355.68S241.24,79.59,452.47,1Z"/><path class="cls-5" d="M493.25,91S652.79,217.12,674.5,252.27s26.89,73.42,26.89,73.42l-40.33-64.11L590.75,198.5s-84.35-51.75-97.5-62.07S433.1,61,433.1,61Z"/><polygon class="cls-5" points="281.57 201.6 219.01 244.9 154.38 308.11 166.79 277.09 194.71 249.17 231.93 222.29 270.13 201.6 307.42 188.16 281.57 201.6"/><polygon class="cls-5" points="30.29 361.88 11.68 405.31 2.38 461.15 16.33 449.32 23.64 411.52 53.64 341.2 30.29 361.88"/><polygon class="cls-5" points="831.68 728.97 817.24 919.77 838.92 789.98 833.75 682.44 831.68 728.97"/><path class="cls-2" d="M410.82,177.82s65.44,385,306.57,446.84c0,0-196.31,290.37-234.18,439.34h274s27.07-508.78-77.71-664.06L549.39,235.73S431,122.27,410.82,177.82Z"/><path class="cls-6" d="M433.1,230.59s46,150.94,79.06,194.37C512.16,425,443,238.9,433.1,230.59Z"/><path class="cls-6" d="M567.24,327.78S654.86,432.2,671.4,494.24l-45.5-74.45L559.73,336V308.11Z"/><path class="cls-6" d="M582.47,518S641.75,592,697.42,604.11C697.42,604.11,626.94,559.39,582.47,518Z"/><path class="cls-6" d="M680.5,705.85s-94.92,171.76-98,191.54C582.47,897.39,678.23,717.88,680.5,705.85Z"/><path class="cls-6" d="M648.48,837.19s-74.28,97.55-76.35,167.87C572.13,1005.06,618.31,883.37,648.48,837.19Z"/><path class="cls-6" d="M314.66,375.32s-99.76,197-136.74,228.79C177.92,604.11,297.08,397,314.66,375.32Z"/><path class="cls-6" d="M148.5,401.13S48.41,504.94,28,596.79C28,596.79,82.64,485.87,148.5,401.13Z"/><path class="cls-6" d="M88.24,705.85s-18,24.29-42.65,29.91C45.59,735.76,88.28,705.48,88.24,705.85Z"/><path class="cls-6" d="M66.91,814.71s101.46,162,111,208.77C177.92,1023.48,69.41,832.2,66.91,814.71Z"/><path class="cls-4" d="M169.89,736.79V866.36L98.54,814.79,55.86,748.38s35.62-11.13,66.56-46.81Z"/><path class="cls-4" d="M303.71,681.87s65.18-4.58,116.6-7.8c17-1.06,32.45-2,43.59-2.53,4.42-.22,8.16-.38,11-.48,32.06-1,23.79-3.1,32.06-1,1.87.47,4.62,1,7.77,1.55,10.79,1.88,26.17,3.93,26.17,3.93l-42.21,1.76s-22.75,2.06-30,2.06-21.72,0-23.78-1-25.85,1-25.85,1H402.55l-42.14,2.54Z"/><polygon class="cls-4" points="307.42 657.62 240.21 661.76 159.28 675.51 172.81 675.51 216.5 669.14 236.61 666.56 261.93 666.56 279.5 662.79 293.98 660.72 324 657.62 307.42 657.62"/><path class="cls-4" d="M346.71,715.53l-87.89,2.06-41.36,5.17-33.09,4.14h16.87S233,724.83,234,724.83s29.66-3.62,29.66-3.62l33.42,2.59,17.21-2.59Z"/></svg>