<svg id="Layer_1" data-name="Layer 1" xmlns="http://www.w3.org/2000/svg" viewBox="0 0 822 797"><defs><style>.cls-1{fill:none;stroke:#000;stroke-miterlimit:10;stroke-width:4px;}.cls-2{fill:#ffe4d3;}.cls-3{font-size:79px;font-family:Avenir-Medium, Avenir;font-weight:500;letter-spacing:0.09em;}</style></defs><path class="cls-1" d="M73.91,365.43,402,37s31-31,65-3L745.09,366.7"/><rect class="cls-2" x="13" y="350" width="793" height="432" rx="12"/><text class="cls-3" transform="translate(54 480.66)">COME IN WE’RE</text><path d="M50.24,615a90.84,90.84,0,0,1,6.48-35,76.64,76.64,0,0,1,18.06-26.69,79.62,79.62,0,0,1,27.49-16.93A99.06,99.06,0,0,1,137,530.5a99,99,0,0,1,34.76,5.91,79.53,79.53,0,0,1,27.49,16.93A76.66,76.66,0,0,1,217.36,580a97.85,97.85,0,0,1,0,70,76.61,76.61,0,0,1-18.07,26.7,79.53,79.53,0,0,1-27.49,16.93A99,99,0,0,1,137,699.55a99.06,99.06,0,0,1-34.77-5.91,79.62,79.62,0,0,1-27.49-16.93A76.58,76.58,0,0,1,56.72,650,90.77,90.77,0,0,1,50.24,615Zm36.81,0a58.9,58.9,0,0,0,3.52,20.79,47.66,47.66,0,0,0,10.11,16.36A46.11,46.11,0,0,0,116.47,663,52.77,52.77,0,0,0,137,666.83,52.75,52.75,0,0,0,157.6,663a46.11,46.11,0,0,0,15.79-10.8,47.66,47.66,0,0,0,10.11-16.36,62.8,62.8,0,0,0,0-41.46,47.62,47.62,0,0,0-10.11-16.48,46.36,46.36,0,0,0-15.79-10.79A52.75,52.75,0,0,0,137,563.22a52.77,52.77,0,0,0-20.57,3.86,46.36,46.36,0,0,0-15.79,10.79,47.62,47.62,0,0,0-10.11,16.48A59.18,59.18,0,0,0,87.05,615Z"/><path d="M268.36,534.59h59.76a118.44,118.44,0,0,1,23.63,2.27,54,54,0,0,1,19.43,7.84,39.76,39.76,0,0,1,13.17,15q4.89,9.43,4.89,23.74,0,14.1-4.55,23.63a38.72,38.72,0,0,1-12.49,15.22,50.68,50.68,0,0,1-18.86,8.07,110.57,110.57,0,0,1-23.63,2.39h-25.9v62.71H268.36Zm35.45,68.16h23.63a46.08,46.08,0,0,0,9.2-.9,24.62,24.62,0,0,0,7.95-3.07,16.36,16.36,0,0,0,5.68-5.91,18.66,18.66,0,0,0,2.16-9.43q0-6.13-2.84-9.88a19,19,0,0,0-7.27-5.8,31.23,31.23,0,0,0-9.88-2.61,100.9,100.9,0,0,0-10.46-.57H303.81Z"/><path d="M433.32,534.59H542.6v32.72H468.76v30h69.75V630H468.76v32.72h77.93v32.72H433.32Z"/><path d="M595.54,534.59h48.17L712.1,646.38h.45V534.59H748V695.46H701.65L631.44,580.94H631V695.46H595.54Z"/><rect class="cls-1" x="31.17" y="365.67" width="755.9" height="400.62" rx="12"/></svg>