<svg id="Layer_1" data-name="Layer 1" xmlns="http://www.w3.org/2000/svg" viewBox="0 0 1920 1080"><defs><style>.cls-1{fill:#938c5a;}.cls-2{fill:#9dae19;}</style></defs><path class="cls-1" d="M1652,80.15s22.58-29.4,27.6,11c0,0,37.65,33.08,50.19,36.76s50.2,69.83,50.2,69.83,32.62,66.16,30.11,99.24.14,140.87.14,140.87l-17.71,90.69s-42.66,73.51-47.68,80.86S1687.14,716,1687.14,716l-25.09,22.05-22.59-11-47.68-62.49-60.23-55.13L1519,569h35.13l67.76-11,17.57-7.35,20.08-11-15.06-11-30.12-7.35s-37.64-7.35-42.66-11-32.62-14.7-37.64-18.38S1519,472.93,1519,472.93l32.62,7.86,20.08,7.35,30.12,3.67c12.54,0-30.12-25.72-37.65-29.4s-22.58-22.05-22.58-22.05S1529,433,1529,425.65s-1.06-14-1.78-21.7l-.73-7.7,7.53-3.68L1519,350.28s20.08-1.81,25.1,1.86,25.09,11,27.6,11-7.53-3.68,2.51,0a65.71,65.71,0,0,0,20.08,3.68s-37.65,3.67,12.55,0l50.19-3.68,7.59-3.16L1637,341.12l-17.57-25.73s-7.53-14.7-12.54-14.7-32.63-14.71-35.14-22.06-32.62-29.4-32.62-29.4,17.56,0,22.58,3.67,32.63,3.68,35.14,7.36,12.54,11,12.54,11,10,7.35,15.06,7.35-2.51-7.35,5,0a65.11,65.11,0,0,0,15.06,11l-25.1-25.73-10-22.05s-12.54-7.35-15-18.38-5-14.7-7.53-22.05-7.53-14.7-7.53-22.06-2.51-7.35,0-25.72,0-11,5-29.41a192,192,0,0,1,12.55-33.08l15-18.38h0l12.55,3.68s15.06,18.38,15.06,22-5-7.35,0,3.68,25.16,49.49,25.16,49.49l-10.1-42.14S1639.46,91.18,1652,80.15Z"/><path class="cls-2" d="M1694.83,257.15s-5.28,275-5.19,312.44c.16,64.36.73,154.07,2.64,165.86,3,18.64-14.25,188.47-14.25,188.47L1664.7,1086.8l-15.59,20.72,14.46-193.95,10.94-86.68,2.27-62.43s-1.29-56,2.23-61.29,2.35-64.71,2.35-64.71"/><path class="cls-1" d="M1404.87,600.23s-21.42-20.08-26.18,7.52c0,0-35.69,22.59-47.59,25.1s-47.6,47.68-47.6,47.68-30.93,45.17-28.56,67.76-.13,96.19-.13,96.19l16.79,61.91s40.46,50.2,45.22,55.22,54.73,72.77,54.73,72.77l23.8,15.06,21.42-7.53L1462,999.25l57.11-37.64L1531,934h-33.32l-64.25-7.53-16.66-5-19-7.53,14.28-7.53,28.56-5s35.69-5,40.45-7.53,30.94-10,35.7-12.55S1531,868.4,1531,868.4l-30.94,5.37-19,5-28.55,2.51c-11.9,0,28.55-17.57,35.69-20.08s21.42-15.06,21.42-15.06,11.9-5,11.9-10,1-9.56,1.69-14.82l.69-5.26-7.14-2.51L1531,784.66s-19-1.23-23.8,1.27-23.8,7.53-26.18,7.53,7.14-2.51-2.38,0a84.63,84.63,0,0,1-19,2.51s35.69,2.51-11.9,0l-47.6-2.51-7.2-2.15,26.24-12.9,16.66-17.57s7.14-10,11.9-10,30.93-10,33.31-15.06S1512,715.67,1512,715.67s-16.66,0-21.42,2.51-30.93,2.51-33.31,5-11.9,7.52-11.9,7.52-9.52,5-14.28,5,2.38-5-4.76,0a65.89,65.89,0,0,1-14.28,7.53l23.8-17.57,9.52-15.05s11.9-5,14.28-12.55,4.76-10,7.14-15.06,7.14-10,7.14-15.06,2.37-5,0-17.56,0-7.53-4.76-20.08a112.78,112.78,0,0,0-11.9-22.59L1443,595.21h0l-11.9,2.51s-14.28,12.54-14.28,15,4.76-5,0,2.51-23.86,33.8-23.86,33.8l9.58-28.78S1416.77,607.75,1404.87,600.23Z"/><path class="cls-2" d="M1370.24,769.08s5.28,187.79,5.18,213.32c-.16,43.94-.72,105.2-2.64,113.25-3,12.72,14.26,128.68,14.26,128.68l13.33,111.21,15.58,14.15-14.46-132.43-10.94-59.18-2.27-42.62s1.3-38.25-2.22-41.85-2.35-44.18-2.35-44.18"/></svg>