<svg id="Layer_1" data-name="Layer 1" xmlns="http://www.w3.org/2000/svg" viewBox="0 0 555.43 1019.86"><defs><style>.cls-1{fill:#938c5a;}.cls-2{fill:#9dae19;}</style></defs><path class="cls-1" d="M397.19,10.33s22.59-29.41,27.61,11c0,0,37.64,33.08,50.19,36.76s50.19,69.83,50.19,69.83,32.63,66.16,30.12,99.24.13,140.87.13,140.87l-17.7,90.69s-42.66,73.51-47.68,80.86-57.72,106.59-57.72,106.59l-25.1,22.06-22.58-11L337,594.73,276.73,539.6l-12.54-40.43h35.13l67.76-11,17.57-7.35,20.07-11-15.06-11-30.11-7.35s-37.64-7.35-42.66-11-32.63-14.7-37.65-18.38-15.05-18.88-15.05-18.88L296.81,411l20.08,7.35L347,422c12.55,0-30.11-25.72-37.64-29.4s-22.59-22.05-22.59-22.05-12.55-7.35-12.55-14.7-1.05-14-1.78-21.71l-.73-7.7,7.53-3.67-15.05-42.3s20.07-1.81,25.09,1.86,25.1,11,27.61,11-7.53-3.67,2.51,0A65.62,65.62,0,0,0,339.47,297s-37.64,3.67,12.55,0l50.19-3.68,7.6-3.16-27.67-18.89-17.57-25.73S357,230.86,352,230.86s-32.62-14.7-35.13-22.06-32.63-29.4-32.63-29.4,17.57,0,22.59,3.68,32.62,3.67,35.13,7.35,12.55,11,12.55,11,10,7.35,15.06,7.35-2.51-7.35,5,0a64.82,64.82,0,0,0,15.05,11L364.57,194.1l-10-22S342,164.7,339.47,153.67s-5-14.7-7.53-22-7.52-14.7-7.52-22.05-2.51-7.36,0-25.73,0-11,5-29.41A192,192,0,0,1,342,21.35L357,3h0l12.55,3.68s15.06,18.38,15.06,22-5-7.35,0,3.68,25.16,49.5,25.16,49.5L399.7,39.73S384.65,21.35,397.19,10.33Z"/><path class="cls-2" d="M440,187.32s-5.28,275-5.18,312.44c.15,64.36.72,154.07,2.64,165.86,3,18.64-14.26,188.47-14.26,188.47L409.88,1017l-15.58,20.72,14.46-194,10.94-86.68L422,694.63s-1.3-56,2.22-61.29,2.35-64.7,2.35-64.7"/><path class="cls-1" d="M150.06,530.4s-21.42-20.08-26.18,7.53c0,0-35.7,22.58-47.6,25.09S28.69,610.7,28.69,610.7-2.25,655.88.13,678.46,0,774.65,0,774.65l16.79,61.92S57.25,886.76,62,891.78s54.74,72.77,54.74,72.77l23.8,15.06L162,972.08l45.21-42.66,57.12-37.64,11.9-27.61H242.87l-64.26-7.53-16.65-5-19-7.53,14.28-7.52,28.55-5s35.7-5,40.46-7.53,30.94-10,35.7-12.55,14.28-12.9,14.28-12.9l-30.94,5.37-19,5-28.56,2.51c-11.9,0,28.56-17.57,35.7-20.08s21.42-15,21.42-15,11.9-5,11.9-10,1-9.56,1.69-14.82l.69-5.26-7.14-2.51,14.28-28.88s-19-1.23-23.8,1.28-23.8,7.52-26.18,7.52,7.14-2.5-2.38,0a84.75,84.75,0,0,1-19,2.51s35.7,2.51-11.9,0l-47.59-2.51-7.21-2.15,26.25-12.9L181,691s7.14-10,11.9-10,30.94-10,33.32-15.06,30.94-20.07,30.94-20.07-16.66,0-21.42,2.51-30.94,2.51-33.32,5-11.9,7.53-11.9,7.53-9.52,5-14.28,5,2.38-5-4.75,0a65.89,65.89,0,0,1-14.28,7.53L181,655.88l9.52-15.06s11.9-5,14.28-12.55,4.76-10,7.14-15.06,7.14-10,7.14-15.05,2.38-5,0-17.57,0-7.53-4.76-20.08a112.53,112.53,0,0,0-11.9-22.58l-14.28-12.55h0l-11.9,2.51S162,540.44,162,542.94s4.76-5,0,2.51-23.87,33.8-23.87,33.8l9.59-28.78S162,537.93,150.06,530.4Z"/><path class="cls-2" d="M115.42,699.25S120.7,887,120.61,912.58c-.16,43.94-.73,105.19-2.65,113.24-3,12.73,14.26,128.68,14.26,128.68l13.33,111.21,15.58,14.15-14.45-132.42-10.94-59.19-2.27-42.62s1.29-38.25-2.23-41.85-2.35-44.18-2.35-44.18"/></svg>