<svg id="Layer_1" data-name="Layer 1" xmlns="http://www.w3.org/2000/svg" viewBox="0 0 1920 1094"><defs><style>.cls-1{fill:#f5e7db;}.cls-2{fill:#f5c2ad;}.cls-3{fill:#94becd;}.cls-4{fill:none;stroke:#f5e7db;stroke-miterlimit:10;stroke-width:2px;}</style></defs><rect class="cls-1" width="1920" height="1094"/><rect class="cls-2" y="508" width="1920" height="134"/><rect class="cls-3" y="642" width="1920" height="452"/><line class="cls-4" y1="559" x2="1920" y2="559"/><line class="cls-4" x1="-1" y1="607.4" x2="1919" y2="607.4"/><line class="cls-4" x1="-1" y1="655.8" x2="1919" y2="655.8"/><line class="cls-4" y1="704.2" x2="1920" y2="704.2"/><line class="cls-4" y1="752.6" x2="1920" y2="752.6"/><line class="cls-4" y1="801" x2="1920" y2="801"/><line class="cls-4" y1="849.4" x2="1920" y2="849.4"/><line class="cls-4" x1="-1" y1="897.8" x2="1919" y2="897.8"/><line class="cls-4" x1="-1" y1="946.2" x2="1919" y2="946.2"/><line class="cls-4" x1="-1" y1="994.6" x2="1919" y2="994.6"/><line class="cls-4" x1="-1" y1="1043" x2="1919" y2="1043"/><line class="cls-4" x1="57" y1="1094" x2="57" y2="508"/><line class="cls-4" x1="114" y1="1094" x2="110.18" y2="508"/><line class="cls-4" x1="167" y1="1094" x2="163.35" y2="508"/><line class="cls-4" x1="220" y1="1094" x2="216.53" y2="508"/><line class="cls-4" x1="273" y1="1094" x2="269.7" y2="508"/><line class="cls-4" x1="325" y1="1094" x2="322.88" y2="508"/><line class="cls-4" x1="379" y1="1094" x2="376.06" y2="508"/><line class="cls-4" x1="433" y1="1094" x2="429.23" y2="508"/><line class="cls-4" x1="486" y1="1094" x2="482.41" y2="508"/><line class="cls-4" x1="540" y1="1094" x2="535.59" y2="508"/><line class="cls-4" x1="596" y1="1094" x2="588.76" y2="508"/><line class="cls-4" x1="654" y1="1094" x2="641.94" y2="508"/><line class="cls-4" x1="705" y1="1094" x2="695.12" y2="508"/><line class="cls-4" x1="757" y1="1094" x2="748.29" y2="508"/><line class="cls-4" x1="813" y1="1094" x2="801.47" y2="508"/><line class="cls-4" x1="865" y1="1094" x2="854.65" y2="508"/><line class="cls-4" x1="918" y1="1094" x2="907.82" y2="508"/><line class="cls-4" x1="969" y1="1094" x2="961" y2="508"/><line class="cls-4" x1="1017" y1="1094" x2="1014.18" y2="508"/><line class="cls-4" x1="1068" y1="1094" x2="1067.35" y2="508"/><line class="cls-4" x1="1117" y1="1094" x2="1120.53" y2="508"/><line class="cls-4" x1="1173.7" y1="508" x2="1168" y2="1094"/><line class="cls-4" x1="1216" y1="1094" x2="1226.88" y2="508"/><line class="cls-4" x1="1268" y1="1094" x2="1280.06" y2="508"/><line class="cls-4" x1="1321" y1="1094" x2="1333.23" y2="508"/><line class="cls-4" x1="1374" y1="1094" x2="1386.41" y2="508"/><line class="cls-4" x1="1439.59" y1="508" x2="1428" y2="1094"/><line class="cls-4" x1="1483" y1="1094" x2="1492.76" y2="508"/><line class="cls-4" x1="1535" y1="1094" x2="1545.94" y2="508"/><line class="cls-4" x1="1591" y1="1094" x2="1599.12" y2="508"/><line class="cls-4" x1="1646" y1="1094" x2="1652.29" y2="508"/><line class="cls-4" x1="1700" y1="1094" x2="1705.47" y2="508"/><line class="cls-4" x1="1751" y1="1094" x2="1758.65" y2="508"/><line class="cls-4" x1="1801" y1="1094" x2="1811.82" y2="508"/><line class="cls-4" x1="1865" y1="1094" x2="1865" y2="508"/></svg>