<svg id="Layer_1" width="50px" height="50px" data-name="Layer 1" xmlns="http://www.w3.org/2000/svg" viewBox="0 0 412 429"><defs><style>.cls-1{fill:#ffcd02;}.cls-2{fill:#feb519;}.cls-3{fill:#ff6632;}.cls-4{fill:#fe9134;}.cls-5{fill:#986137;}.cls-6{fill:#f4b31c;}.cls-7{fill:#681704;}</style></defs><path class="cls-1" d="M192.79,18.68s-34.21,34.41-5.26,105.86h20.06S234.9,75.58,192.79,18.68Z"/><path class="cls-1" d="M100.69,35.89s71.24,49,68.51,88.65l-15.88,10.59s0-15.88-36.85-35.73C116.47,99.4,102,91.46,100.69,35.89Z"/><path class="cls-2" d="M58.58,82.2s92.1,19.85,94.74,52.93c0,0-27.63,22.49-30.27,33.08,0,0-17.1,7.94-56.58-47.64Z"/><path class="cls-1" d="M216.3,62.19s-1-35.57,30.53-43.51c0,0,25.92,67.88-6.82,106.72l-3.58,9.73-28.84-10.59Z"/><path class="cls-1" d="M315.16,65s-41.68,21.17-64.92,70.13c0,0,28.67,35.18,20.48,33.47,0,0,42.71-26.41,40.94-51.77Z"/><path class="cls-1" d="M311.66,116.83S327,83.52,315.16,65"/><path class="cls-1" d="M120.42,196s-5.26-23.81-101.31-14.55c0,0,15.42,32.49,50.65,43.41,11.93,3.7,26.13,4.92,42.77,1.58Z"/><path class="cls-1" d="M12.53,234.37c-14.15,3.34,34.21,62.19,69.73,33.08,0,0,10.53-22.5,38.16-33.08l-7.89-7.94S79.63,218.49,12.53,234.37Z"/><path class="cls-3" d="M120.42,234.37s-36.84,1.75-50.66,72.32c0,0,35,21.4,65.22-27.45C135,279.24,111.21,251.57,120.42,234.37Z"/><path class="cls-1" d="M146.33,289.54s-17.22,16.9-9.39,41.63,14.08,31.67,9.39,47.43c0,0,39.13-14.47,43.83-73.53Z"/><path class="cls-4" d="M220.42,303.17s-.88,32.75,29.82,48.14c0,0,36.84,19.67,32.46,27.45,0,0,17.9-61.84-26.13-89.22C256.57,289.54,233.58,311.11,220.42,303.17Z"/><path class="cls-1" d="M272.42,272.86S306,311.11,379.63,284.65c0,0-16.92-50.28-93.33-50.28Z"/><path class="cls-1" d="M286.3,217.47s59.72,8.65,85.08-38.17c0,0-64.56-33.9-88.68,0C282.7,179.3,295.6,211.17,286.3,217.47Z"/><path class="cls-1" d="M143.71,279.49s-43,79.26-99.6,66a141.25,141.25,0,0,0,8.22-18s7.57-31.87,17.43-27.45c0,0,17.77,19.1,50.66-12.72Z"/><path class="cls-2" d="M190.37,304.5H215s24.28,64.12-44.71,108.5c0,0,7.73-31.17,0-37.29l-7.72-6.13S195.94,331.74,190.37,304.5Z"/><path class="cls-2" d="M355.17,190.7,402,201.28s-37.75,74.29-53.09,62.19c0,0-44.1-37.14-62.61-24.62,0,0,9.3-19.9,0-26.65C286.3,212.2,324.13,224,355.17,190.7Z"/><path class="cls-1" d="M286.3,334.15s33.89,17,33.35,19.47c0,0,26.41-15.91-16.67-59.64,0,0-33.82-14.38-30.56-21.12l-15.85,16.68S286.39,334.69,286.3,334.15Z"/><path class="cls-1" d="M251.08,348.34s15.13,49.07-33.33,64.66l-15.28-27.43s24.06-44.62,8.4-80.89L232,303.17S240,346.67,251.08,348.34Z"/><path class="cls-3" d="M256.57,65s21.71-33.22,35.54-37.12c0,0,7.31,46.38-1.27,54.32,0,0-37.09,30.43-40.6,52.93H236.43S262.45,94.11,256.57,65Z"/><path class="cls-4" d="M143.71,3,175.9,52.76s-.22,59.87,11.63,71.78H169.2S160.57,69.59,126,56.05c0,0-12.18-42.27-5.6-53,0,0,10.7,10.39,14.56,15.68C135,18.68,131.47,8.49,143.71,3Z"/><path class="cls-4" d="M19.11,168.66s59.36-29.49,71.78-18.28c0,0,25.58,28.41,32.16,17.83L120.42,196s1-16.18-90.27-16.69Z"/><path class="cls-4" d="M95.38,326.56S94.87,385.21,80,389.18l24.61-9.07-3.57,26.59S154.19,384,149.81,335c0,0,2.19-59.1,2.19-58.7s-9.61-3.43-9.61-3.43S104.55,338,95.38,326.56Z"/><path class="cls-2" d="M311.66,125.4s32.45-31.53,68-25.46c0,0-26.55,60.32-60,64.29,0,0-33.88,1-36.95,15.07,0,0-1.16-11.63-12-10.7C270.72,168.6,312.12,132.87,311.66,125.4Z"/><polygon class="cls-1" points="2 116.83 66.47 120.57 90.16 151 51.54 154.89 2 116.83"/><path class="cls-3" d="M291.49,300.6s65.12,47.09,87.6,27.75c0,0-29-53.6-43.8-55.61,0,0-57.72,11.58-63.55,0Z"/><path class="cls-5" d="M135,144l34.22-19.45h38.39c-.33,0,29.06,10.59,28.84,10.59s15.48.51,20.79,8.86,25.34,16.67,25,16.28,3.07,13.7,9.21,22.49,4,41.33,3.95,41S282,244.68,281,250.25s-15.17,29.24-15.79,39.69-14.48,10.59-27.63,19.85-75-9.83-75-9.83a52,52,0,0,0-15.79-10c-9.21-3.56-26.92-9.26-23.69-17.2s-13.15-37.05-10.52-46.31,1.36-36,5.94-47.13S135,144,135,144Z"/><path class="cls-6" d="M241.55,169,221.87,156.3H199.79c.18,0-16.72,6.92-16.59,6.92s-8.91.34-12,5.8-14.58,10.91-14.41,10.66-1.76,9-5.3,14.72-2.32,27-2.27,26.84,7.73,13.68,8.33,17.32,8.73,19.14,9.08,26,8.33,6.93,15.89,13,43.15-6.44,43.15-6.44a29.84,29.84,0,0,1,9.08-6.55c5.3-2.33,15.48-6.06,13.62-11.26S256,229,254.47,223s-.79-23.59-3.42-30.85S241.55,169,241.55,169Z"/><path class="cls-7" d="M233.47,258.42l-16,10.35h-18c.15,0-13.59-5.63-13.49-5.63s-7.24-.28-9.72-4.72-11.86-8.87-11.72-8.66a40.81,40.81,0,0,0-4.31-12c-2.87-4.68-1.88-22-1.84-21.83s6.28-11.12,6.77-14.08,7.09-15.56,7.38-21.13,6.77-5.63,12.93-10.56,35.08,5.24,35.08,5.24a24.17,24.17,0,0,0,7.38,5.32c4.31,1.9,12.59,4.93,11.08,9.16s6.15,19.71,4.92,24.64-.64,19.18-2.78,25.08S233.47,258.42,233.47,258.42Z"/></svg>