<svg id="Layer_1" data-name="Layer 1" xmlns="http://www.w3.org/2000/svg" viewBox="0 0 902 1161"><defs><style>.cls-1{fill:#614332;}.cls-2{fill:#eea4af;}.cls-3{fill:#f2bfbe;}.cls-4{fill:#42210b;}</style></defs><path class="cls-1" d="M591,1213,779.16,635.1,731,372s-161.18-34.46-174.59-52.23-118.32-89.29-152.87-90.53S193.9,113,193.9,113L141,75h39.8l52.41,38L307,145l40-5s26-8,39-4,88,30,101,39,65,22,78,31,78-8.57,74-8.78S692,184,692,184l87.16-4.26L831.57,75,832,5l74,33,20,1133"/><path class="cls-2" d="M346,236s1-34,21-34,21,34,0,34Z"/><path class="cls-3" d="M346,236s30-1,32,6-8,18-8,18l-13-3Z"/><path class="cls-2" d="M346,240.32S358,253,350,263l-8,10h-4.71L327,263a92,92,0,0,1,3-9c1-2,7-8,7-8Z"/><path class="cls-3" d="M339.88,236s-.64,9.65-19.26,4.32S311,228,311,228l5-7s6.7-3,8.35-2,12,11.36,12,11.36Z"/><path class="cls-3" d="M339.88,236S327,220.16,327,212.08s6.44-8.34,6.44-8.34,11.64-4.19,14.6,2.53,2,2.59,0,7.66A34.32,34.32,0,0,0,346,225l-2.69,5.32Z"/><path class="cls-2" d="M141,80s1-34,21-34,21,34,0,34Z"/><path class="cls-3" d="M141,80s30-1,32,6-8,18-8,18l-13-3Z"/><path class="cls-3" d="M141,84.32S153,97,145,107l-8,10h-4.71L122,107a92,92,0,0,1,3-9c1-2,7-8,7-8Z"/><path class="cls-3" d="M134.88,80s-.64,9.65-19.26,4.32S106,72,106,72l5-7s6.7-3,8.35-2,12,11.36,12,11.36Z"/><path class="cls-3" d="M134.88,80S122,64.16,122,56.08s6.44-8.34,6.44-8.34,11.64-4.19,14.6,2.53,2,2.59,0,7.66A34.32,34.32,0,0,0,141,69l-2.69,5.32Z"/><path class="cls-3" d="M225,151s1-34,21-34,21,34,0,34Z"/><path class="cls-2" d="M225,151s30-1,32,6-8,18-8,18l-13-3Z"/><path class="cls-3" d="M225,155.32S237,168,229,178l-8,10h-4.71L206,178a92,92,0,0,1,3-9c1-2,7-8,7-8Z"/><path class="cls-3" d="M218.88,151s-.64,9.65-19.26,4.32S190,143,190,143l5-7s6.7-3,8.35-2,12,11.36,12,11.36Z"/><path class="cls-2" d="M218.88,151S206,135.16,206,127.08s6.44-8.34,6.44-8.34,11.64-4.19,14.6,2.53,2,2.59,0,7.66A34.32,34.32,0,0,0,225,140l-2.69,5.32Z"/><path class="cls-3" d="M200.2,89s-1-34-21-34-21,34,0,34Z"/><path class="cls-2" d="M200.2,89s-30-1-32,6,8,18,8,18l13-3Z"/><path class="cls-3" d="M200.2,93.32s-12,12.68-4,22.68l8,10h4.71l10.29-10a92,92,0,0,0-3-9c-1-2-7-8-7-8Z"/><path class="cls-3" d="M206.33,89s.63,9.65,19.25,4.32S235.2,81,235.2,81l-5-7s-6.7-3-8.35-2-12,11.36-12,11.36Z"/><path class="cls-2" d="M206.33,89S219.2,73.16,219.2,65.08s-6.43-8.34-6.43-8.34-11.65-4.19-14.61,2.53-2,2.59,0,7.66a34.32,34.32,0,0,1,2,11.11l2.69,5.32Z"/><path class="cls-3" d="M77.47,82s5-33.64-14.67-37.17-26.67,29.77-6,33.47Z"/><path class="cls-2" d="M77.47,82s-29.35-6.27-32.55.27,4.7,19.12,4.7,19.12l13.32-.66Z"/><path class="cls-3" d="M76.71,86.21s-14,10.36-7.94,21.61l6.12,11.26,4.63.83,11.89-8a92.3,92.3,0,0,0-1.36-9.39c-.63-2.14-5.48-9.11-5.48-9.11Z"/><path class="cls-3" d="M83.5,83s-1.07,9.61,18.19,7.65,11.65-10.43,11.65-10.43l-3.69-7.77s-6.07-4.14-7.87-3.44S88,78.1,88,78.1Z"/><path class="cls-2" d="M83.5,83S99,69.71,100.39,61.76s-4.86-9.34-4.86-9.34-10.72-6.19-14.82-.09-2.47,2.19-1.35,7.54a34.5,34.5,0,0,1,0,11.3l1.71,5.71Z"/><path class="cls-3" d="M66.2,142s-1,34-21,34-21-34,0-34Z"/><path class="cls-2" d="M66.2,142s-30,1-32-6,8-18,8-18l13,3Z"/><path class="cls-3" d="M66.2,137.68S54.2,125,62.2,115l8-10h4.71L85.2,115a92,92,0,0,1-3,9c-1,2-7,8-7,8Z"/><path class="cls-3" d="M72.33,142s.63-9.65,19.25-4.32S101.2,150,101.2,150l-5,7s-6.7,3-8.35,2-12-11.36-12-11.36Z"/><path class="cls-2" d="M72.33,142S85.2,157.84,85.2,165.92s-6.43,8.34-6.43,8.34-11.65,4.19-14.61-2.53-2-2.59,0-7.66a34.32,34.32,0,0,0,2-11.11l2.69-5.32Z"/><path class="cls-3" d="M269,112s1-34,21-34,21,34,0,34Z"/><path class="cls-3" d="M269,112s30-1,32,6-8,18-8,18l-13-3Z"/><path class="cls-3" d="M269,116.32S281,129,273,139l-8,10h-4.71L250,139a92,92,0,0,1,3-9c1-2,7-8,7-8Z"/><path class="cls-3" d="M262.88,112s-.64,9.65-19.26,4.32S234,104,234,104l5-7s6.7-3,8.35-2,12,11.36,12,11.36Z"/><path class="cls-3" d="M262.88,112S250,96.16,250,88.08s6.44-8.34,6.44-8.34,11.64-4.19,14.6,2.53,2,2.59,0,7.66A34.32,34.32,0,0,0,269,101l-2.69,5.32Z"/><path class="cls-3" d="M383,197s1-34,21-34,21,34,0,34Z"/><path class="cls-3" d="M383,197s30-1,32,6-8,18-8,18l-13-3Z"/><path class="cls-3" d="M383,201.32S395,214,387,224l-8,10h-4.71L364,224a92,92,0,0,1,3-9c1-2,7-8,7-8Z"/><path class="cls-3" d="M376.88,197s-.64,9.65-19.26,4.32S348,189,348,189l5-7s6.7-3,8.35-2,12,11.36,12,11.36Z"/><path class="cls-3" d="M376.88,197S364,181.16,364,173.08s6.44-8.34,6.44-8.34,11.64-4.19,14.6,2.53,2,2.59,0,7.66A34.32,34.32,0,0,0,383,186l-2.69,5.32Z"/><path class="cls-3" d="M350,125s1-34,21-34,21,34,0,34Z"/><path class="cls-3" d="M350,125s30-1,32,6-8,18-8,18l-13-3Z"/><path class="cls-3" d="M350,129.32S362,142,354,152l-8,10h-4.71L331,152a92,92,0,0,1,3-9c1-2,7-8,7-8Z"/><path class="cls-3" d="M343.88,125s-.64,9.65-19.26,4.32S315,117,315,117l5-7s6.7-3,8.35-2,12,11.36,12,11.36Z"/><path class="cls-3" d="M343.88,125S331,109.16,331,101.08s6.44-8.34,6.44-8.34,11.64-4.19,14.6,2.53,2,2.59,0,7.66A34.32,34.32,0,0,0,350,114l-2.69,5.32Z"/><path class="cls-2" d="M552,222s1-34,21-34,21,34,0,34Z"/><path class="cls-2" d="M552,222s30-1,32,6-8,18-8,18l-13-3Z"/><path class="cls-2" d="M552,226.32S564,239,556,249l-8,10h-4.71L533,249a92,92,0,0,1,3-9c1-2,7-8,7-8Z"/><path class="cls-2" d="M545.88,222s-.64,9.65-19.26,4.32S517,214,517,214l5-7s6.7-3,8.35-2,12,11.36,12,11.36Z"/><path class="cls-2" d="M545.88,222S533,206.16,533,198.08s6.44-8.34,6.44-8.34,11.64-4.19,14.6,2.53,2,2.59,0,7.66A34.32,34.32,0,0,0,552,211l-2.69,5.32Z"/><path class="cls-2" d="M707,139s1-34,21-34,21,34,0,34Z"/><path class="cls-2" d="M707,139s30-1,32,6-8,18-8,18l-13-3Z"/><path class="cls-2" d="M707,143.32S719,156,711,166l-8,10h-4.71L688,166a92,92,0,0,1,3-9c1-2,7-8,7-8Z"/><path class="cls-2" d="M700.88,139s-.64,9.65-19.26,4.32S672,131,672,131l5-7s6.7-3,8.35-2,12,11.36,12,11.36Z"/><path class="cls-2" d="M700.88,139S688,123.16,688,115.08s6.44-8.34,6.44-8.34,11.64-4.19,14.6,2.53,2,2.59,0,7.66A34.32,34.32,0,0,0,707,128l-2.69,5.32Z"/><path class="cls-2" d="M761,191s1-34,21-34,21,34,0,34Z"/><path class="cls-2" d="M761,191s30-1,32,6-8,18-8,18l-13-3Z"/><path class="cls-2" d="M761,195.32S773,208,765,218l-8,10h-4.71L742,218a92,92,0,0,1,3-9c1-2,7-8,7-8Z"/><path class="cls-2" d="M754.88,191s-.64,9.65-19.26,4.32S726,183,726,183l5-7s6.7-3,8.35-2,12,11.36,12,11.36Z"/><path class="cls-2" d="M754.88,191S742,175.16,742,167.08s6.44-8.34,6.44-8.34,11.64-4.19,14.6,2.53,2,2.59,0,7.66A34.32,34.32,0,0,0,761,180l-2.69,5.32Z"/><path class="cls-2" d="M123,193s1-34,21-34,21,34,0,34Z"/><path class="cls-2" d="M123,193s30-1,32,6-8,18-8,18l-13-3Z"/><path class="cls-2" d="M123,197.32S135,210,127,220l-8,10h-4.71L104,220a92,92,0,0,1,3-9c1-2,7-8,7-8Z"/><path class="cls-2" d="M116.88,193s-.64,9.65-19.26,4.32S88,185,88,185l5-7s6.7-3,8.35-2,12,11.36,12,11.36Z"/><path class="cls-2" d="M116.88,193S104,177.16,104,169.08s6.44-8.34,6.44-8.34,11.64-4.19,14.6,2.53,2,2.59,0,7.66A34.32,34.32,0,0,0,123,182l-2.69,5.32Z"/><path class="cls-2" d="M460.2,127s-1-34-21-34-21,34,0,34Z"/><path class="cls-2" d="M460.2,127s-30-1-32,6,8,18,8,18l13-3Z"/><path class="cls-2" d="M460.2,131.32s-12,12.68-4,22.68l8,10h4.71l10.29-10a92,92,0,0,0-3-9c-1-2-7-8-7-8Z"/><path class="cls-2" d="M466.33,127s.63,9.65,19.25,4.32S495.2,119,495.2,119l-5-7s-6.7-3-8.35-2-12,11.36-12,11.36Z"/><path class="cls-2" d="M466.33,127s12.87-15.84,12.87-23.92-6.43-8.34-6.43-8.34-11.65-4.19-14.61,2.53-2,2.59,0,7.66a34.32,34.32,0,0,1,2,11.11l2.69,5.32Z"/><path class="cls-2" d="M637,226s1-34,21-34,21,34,0,34Z"/><path class="cls-2" d="M637,226s30-1,32,6-8,18-8,18l-13-3Z"/><path class="cls-2" d="M637,230.32S649,243,641,253l-8,10h-4.71L618,253a92,92,0,0,1,3-9c1-2,7-8,7-8Z"/><path class="cls-2" d="M630.88,226s-.64,9.65-19.26,4.32S602,218,602,218l5-7s6.7-3,8.35-2,12,11.36,12,11.36Z"/><path class="cls-2" d="M630.88,226S618,210.16,618,202.08s6.44-8.34,6.44-8.34,11.64-4.19,14.6,2.53,2,2.59,0,7.66A34.32,34.32,0,0,0,637,215l-2.69,5.32Z"/><path class="cls-2" d="M327,115s1-34,21-34,21,34,0,34Z"/><path class="cls-2" d="M327,115s30-1,32,6-8,18-8,18l-13-3Z"/><path class="cls-2" d="M327,119.32S339,132,331,142l-8,10h-4.71L308,142a92,92,0,0,1,3-9c1-2,7-8,7-8Z"/><path class="cls-2" d="M320.88,115s-.64,9.65-19.26,4.32S292,107,292,107l5-7s6.7-3,8.35-2,12,11.36,12,11.36Z"/><path class="cls-2" d="M320.88,115S308,99.16,308,91.08s6.44-8.34,6.44-8.34,11.64-4.19,14.6,2.53,2,2.59,0,7.66A34.32,34.32,0,0,0,327,104l-2.69,5.32Z"/><path class="cls-2" d="M730,105s1-34,21-34,21,34,0,34Z"/><path class="cls-2" d="M730,105s30-1,32,6-8,18-8,18l-13-3Z"/><path class="cls-2" d="M730,109.32S742,122,734,132l-8,10h-4.71L711,132a92,92,0,0,1,3-9c1-2,7-8,7-8Z"/><path class="cls-2" d="M723.88,105s-.64,9.65-19.26,4.32S695,97,695,97l5-7s6.7-3,8.35-2,12,11.36,12,11.36Z"/><path class="cls-2" d="M723.88,105S711,89.16,711,81.08s6.44-8.34,6.44-8.34,11.64-4.19,14.6,2.53,2,2.59,0,7.66A34.32,34.32,0,0,0,730,94l-2.69,5.32Z"/><path class="cls-3" d="M160,174s1-34,21-34,21,34,0,34Z"/><path class="cls-3" d="M160,174s30-1,32,6-8,18-8,18l-13-3Z"/><path class="cls-3" d="M160,178.32S172,191,164,201l-8,10h-4.71L141,201a92,92,0,0,1,3-9c1-2,7-8,7-8Z"/><path class="cls-3" d="M153.88,174s-.64,9.65-19.26,4.32S125,166,125,166l5-7s6.7-3,8.35-2,12,11.36,12,11.36Z"/><path class="cls-3" d="M153.88,174S141,158.16,141,150.08s6.44-8.34,6.44-8.34,11.64-4.19,14.6,2.53,2,2.59,0,7.66A34.32,34.32,0,0,0,160,163l-2.69,5.32Z"/><path class="cls-3" d="M104,135s1-34,21-34,21,34,0,34Z"/><path class="cls-3" d="M104,135s30-1,32,6-8,18-8,18l-13-3Z"/><path class="cls-3" d="M104,139.32S116,152,108,162l-8,10H95.29L85,162a92,92,0,0,1,3-9c1-2,7-8,7-8Z"/><path class="cls-3" d="M97.88,135s-.64,9.65-19.26,4.32S69,127,69,127l5-7s6.7-3,8.35-2,12,11.36,12,11.36Z"/><path class="cls-3" d="M97.88,135S85,119.16,85,111.08s6.44-8.34,6.44-8.34,11.64-4.19,14.6,2.53,2,2.59,0,7.66A34.32,34.32,0,0,0,104,124l-2.69,5.32Z"/><path class="cls-3" d="M37,196s1-34,21-34,21,34,0,34Z"/><path class="cls-3" d="M37,196s30-1,32,6-8,18-8,18l-13-3Z"/><path class="cls-2" d="M37,200.32S49,213,41,223l-8,10H28.29L18,223a92,92,0,0,1,3-9c1-2,7-8,7-8Z"/><path class="cls-3" d="M30.88,196s-.64,9.65-19.26,4.32S2,188,2,188l5-7s6.7-3,8.35-2,12,11.36,12,11.36Z"/><path class="cls-3" d="M30.88,196S18,180.16,18,172.08s6.44-8.34,6.44-8.34,11.64-4.19,14.6,2.53,2,2.59,0,7.66A34.32,34.32,0,0,0,37,185l-2.69,5.32Z"/><path class="cls-3" d="M486,272s1-34,21-34,21,34,0,34Z"/><path class="cls-3" d="M486,272s30-1,32,6-8,18-8,18l-13-3Z"/><path class="cls-3" d="M486,276.32S498,289,490,299l-8,10h-4.71L467,299a92,92,0,0,1,3-9c1-2,7-8,7-8Z"/><path class="cls-3" d="M479.88,272s-.64,9.65-19.26,4.32S451,264,451,264l5-7s6.7-3,8.35-2,12,11.36,12,11.36Z"/><path class="cls-3" d="M479.88,272S467,256.16,467,248.08s6.44-8.34,6.44-8.34,11.64-4.19,14.6,2.53,2,2.59,0,7.66A34.32,34.32,0,0,0,486,261l-2.69,5.32Z"/><path class="cls-3" d="M519,170s1-34,21-34,21,34,0,34Z"/><path class="cls-3" d="M519,170s30-1,32,6-8,18-8,18l-13-3Z"/><path class="cls-3" d="M519,174.32S531,187,523,197l-8,10h-4.71L500,197a92,92,0,0,1,3-9c1-2,7-8,7-8Z"/><path class="cls-3" d="M512.88,170s-.64,9.65-19.26,4.32S484,162,484,162l5-7s6.7-3,8.35-2,12,11.36,12,11.36Z"/><path class="cls-3" d="M512.88,170S500,154.16,500,146.08s6.44-8.34,6.44-8.34,11.64-4.19,14.6,2.53,2,2.59,0,7.66A34.32,34.32,0,0,0,519,159l-2.69,5.32Z"/><path class="cls-3" d="M432,219s1-34,21-34,21,34,0,34Z"/><path class="cls-3" d="M432,219s30-1,32,6-8,18-8,18l-13-3Z"/><path class="cls-3" d="M432,223.32S444,236,436,246l-8,10h-4.71L413,246a92,92,0,0,1,3-9c1-2,7-8,7-8Z"/><path class="cls-3" d="M425.88,219s-.64,9.65-19.26,4.32S397,211,397,211l5-7s6.7-3,8.35-2,12,11.36,12,11.36Z"/><path class="cls-3" d="M425.88,219S413,203.16,413,195.08s6.44-8.34,6.44-8.34,11.64-4.19,14.6,2.53,2,2.59,0,7.66A34.32,34.32,0,0,0,432,208l-2.69,5.32Z"/><path class="cls-3" d="M451,183s1-34,21-34,21,34,0,34Z"/><path class="cls-3" d="M451,183s30-1,32,6-8,18-8,18l-13-3Z"/><path class="cls-3" d="M451,187.32S463,200,455,210l-8,10h-4.71L432,210a92,92,0,0,1,3-9c1-2,7-8,7-8Z"/><path class="cls-3" d="M444.88,183s-.64,9.65-19.26,4.32S416,175,416,175l5-7s6.7-3,8.35-2,12,11.36,12,11.36Z"/><path class="cls-3" d="M444.88,183S432,167.16,432,159.08s6.44-8.34,6.44-8.34,11.64-4.19,14.6,2.53,2,2.59,0,7.66A34.32,34.32,0,0,0,451,172l-2.69,5.32Z"/><path class="cls-3" d="M523,110s1-34,21-34,21,34,0,34Z"/><path class="cls-3" d="M523,110s30-1,32,6-8,18-8,18l-13-3Z"/><path class="cls-3" d="M523,114.32S535,127,527,137l-8,10h-4.71L504,137a92,92,0,0,1,3-9c1-2,7-8,7-8Z"/><path class="cls-3" d="M516.88,110s-.64,9.65-19.26,4.32S488,102,488,102l5-7s6.7-3,8.35-2,12,11.36,12,11.36Z"/><path class="cls-3" d="M516.88,110S504,94.16,504,86.08s6.44-8.34,6.44-8.34,11.64-4.19,14.6,2.53,2,2.59,0,7.66A34.32,34.32,0,0,0,523,99l-2.69,5.32Z"/><path class="cls-3" d="M425,86s1-34,21-34,21,34,0,34Z"/><path class="cls-3" d="M425,86s30-1,32,6-8,18-8,18l-13-3Z"/><path class="cls-3" d="M425,90.32S437,103,429,113l-8,10h-4.71L406,113a92,92,0,0,1,3-9c1-2,7-8,7-8Z"/><path class="cls-3" d="M418.88,86s-.64,9.65-19.26,4.32S390,78,390,78l5-7s6.7-3,8.35-2,12,11.36,12,11.36Z"/><path class="cls-3" d="M418.88,86S406,70.16,406,62.08s6.44-8.34,6.44-8.34,11.64-4.19,14.6,2.53,2,2.59,0,7.66A34.32,34.32,0,0,0,425,75l-2.69,5.32Z"/><path class="cls-3" d="M782,177s1-34,21-34,21,34,0,34Z"/><path class="cls-3" d="M782,177s30-1,32,6-8,18-8,18l-13-3Z"/><path class="cls-3" d="M782,181.32S794,194,786,204l-8,10h-4.71L763,204a92,92,0,0,1,3-9c1-2,7-8,7-8Z"/><path class="cls-3" d="M775.88,177s-.64,9.65-19.26,4.32S747,169,747,169l5-7s6.7-3,8.35-2,12,11.36,12,11.36Z"/><path class="cls-3" d="M775.88,177S763,161.16,763,153.08s6.44-8.34,6.44-8.34,11.64-4.19,14.6,2.53,2,2.59,0,7.66A34.32,34.32,0,0,0,782,166l-2.69,5.32Z"/><path class="cls-2" d="M786,152s1-34,21-34,21,34,0,34Z"/><path class="cls-2" d="M786,152s30-1,32,6-8,18-8,18l-13-3Z"/><path class="cls-2" d="M786,156.32S798,169,790,179l-8,10h-4.71L767,179a92,92,0,0,1,3-9c1-2,7-8,7-8Z"/><path class="cls-2" d="M779.88,152s-.64,9.65-19.26,4.32S751,144,751,144l5-7s6.7-3,8.35-2,12,11.36,12,11.36Z"/><path class="cls-2" d="M779.88,152S767,136.16,767,128.08s6.44-8.34,6.44-8.34,11.64-4.19,14.6,2.53,2,2.59,0,7.66A34.32,34.32,0,0,0,786,141l-2.69,5.32Z"/><path class="cls-2" d="M747,291s1,34,21,34,21-34,0-34Z"/><path class="cls-2" d="M747,291s30,1,32-6-8-18-8-18l-13,3Z"/><path class="cls-2" d="M747,286.68S759,274,751,264l-8-10h-4.71L728,264a92,92,0,0,0,3,9c1,2,7,8,7,8Z"/><path class="cls-2" d="M740.88,291s-.64-9.65-19.26-4.32S712,299,712,299l5,7s6.7,3,8.35,2,12-11.36,12-11.36Z"/><path class="cls-2" d="M740.88,291S728,306.84,728,314.92s6.44,8.34,6.44,8.34,11.64,4.19,14.6-2.53,2-2.59,0-7.66A34.32,34.32,0,0,1,747,302l-2.69-5.32Z"/><path class="cls-2" d="M632.2,313s-1-34-21-34-21,34,0,34Z"/><path class="cls-2" d="M632.2,313s-30-1-32,6,8,18,8,18l13-3Z"/><path class="cls-2" d="M632.2,317.32s-12,12.68-4,22.68l8,10h4.71l10.29-10a92,92,0,0,0-3-9c-1-2-7-8-7-8Z"/><path class="cls-2" d="M638.33,313s.63,9.65,19.25,4.32S667.2,305,667.2,305l-5-7s-6.7-3-8.35-2-12,11.36-12,11.36Z"/><path class="cls-2" d="M638.33,313s12.87-15.84,12.87-23.92-6.43-8.34-6.43-8.34-11.65-4.19-14.61,2.53-2,2.59,0,7.66a34.32,34.32,0,0,1,2,11.11l2.69,5.32Z"/><path class="cls-3" d="M839,108s1-34,21-34,21,34,0,34Z"/><path class="cls-3" d="M839,108s30-1,32,6-8,18-8,18l-13-3Z"/><path class="cls-3" d="M839,112.32S851,125,843,135l-8,10h-4.71L820,135a92,92,0,0,1,3-9c1-2,7-8,7-8Z"/><path class="cls-3" d="M832.88,108s-.64,9.65-19.26,4.32S804,100,804,100l5-7s6.7-3,8.35-2,12,11.36,12,11.36Z"/><path class="cls-3" d="M832.88,108S820,92.16,820,84.08s6.44-8.34,6.44-8.34,11.64-4.19,14.6,2.53,2,2.59,0,7.66A34.32,34.32,0,0,0,839,97l-2.69,5.32Z"/><path class="cls-3" d="M749,94s1-34,21-34,21,34,0,34Z"/><path class="cls-3" d="M749,94s30-1,32,6-8,18-8,18l-13-3Z"/><path class="cls-3" d="M749,98.32S761,111,753,121l-8,10h-4.71L730,121a92,92,0,0,1,3-9c1-2,7-8,7-8Z"/><path class="cls-3" d="M742.88,94s-.64,9.65-19.26,4.32S714,86,714,86l5-7s6.7-3,8.35-2,12,11.36,12,11.36Z"/><path class="cls-3" d="M742.88,94S730,78.16,730,70.08s6.44-8.34,6.44-8.34,11.64-4.19,14.6,2.53,2,2.59,0,7.66A34.32,34.32,0,0,0,749,83l-2.69,5.32Z"/><path class="cls-3" d="M756,124s1-34,21-34,21,34,0,34Z"/><path class="cls-3" d="M756,124s30-1,32,6-8,18-8,18l-13-3Z"/><path class="cls-3" d="M756,128.32S768,141,760,151l-8,10h-4.71L737,151a92,92,0,0,1,3-9c1-2,7-8,7-8Z"/><path class="cls-3" d="M749.88,124s-.64,9.65-19.26,4.32S721,116,721,116l5-7s6.7-3,8.35-2,12,11.36,12,11.36Z"/><path class="cls-3" d="M749.88,124S737,108.16,737,100.08s6.44-8.34,6.44-8.34,11.64-4.19,14.6,2.53,2,2.59,0,7.66A34.32,34.32,0,0,0,756,113l-2.69,5.32Z"/><path class="cls-3" d="M789,206s1-34,21-34,21,34,0,34Z"/><path class="cls-3" d="M789,206s30-1,32,6-8,18-8,18l-13-3Z"/><path class="cls-3" d="M789,210.32S801,223,793,233l-8,10h-4.71L770,233a92,92,0,0,1,3-9c1-2,7-8,7-8Z"/><path class="cls-3" d="M782.88,206s-.64,9.65-19.26,4.32S754,198,754,198l5-7s6.7-3,8.35-2,12,11.36,12,11.36Z"/><path class="cls-3" d="M782.88,206S770,190.16,770,182.08s6.44-8.34,6.44-8.34,11.64-4.19,14.6,2.53,2,2.59,0,7.66A34.32,34.32,0,0,0,789,195l-2.69,5.32Z"/><path class="cls-3" d="M749,225s1-34,21-34,21,34,0,34Z"/><path class="cls-3" d="M749,225s30-1,32,6-8,18-8,18l-13-3Z"/><path class="cls-3" d="M749,229.32S761,242,753,252l-8,10h-4.71L730,252a92,92,0,0,1,3-9c1-2,7-8,7-8Z"/><path class="cls-3" d="M742.88,225s-.64,9.65-19.26,4.32S714,217,714,217l5-7s6.7-3,8.35-2,12,11.36,12,11.36Z"/><path class="cls-3" d="M742.88,225S730,209.16,730,201.08s6.44-8.34,6.44-8.34,11.64-4.19,14.6,2.53,2,2.59,0,7.66A34.32,34.32,0,0,0,749,214l-2.69,5.32Z"/><path class="cls-3" d="M654,135s1-34,21-34,21,34,0,34Z"/><path class="cls-3" d="M654,135s30-1,32,6-8,18-8,18l-13-3Z"/><path class="cls-3" d="M654,139.32S666,152,658,162l-8,10h-4.71L635,162a92,92,0,0,1,3-9c1-2,7-8,7-8Z"/><path class="cls-3" d="M647.88,135s-.64,9.65-19.26,4.32S619,127,619,127l5-7s6.7-3,8.35-2,12,11.36,12,11.36Z"/><path class="cls-3" d="M647.88,135S635,119.16,635,111.08s6.44-8.34,6.44-8.34,11.64-4.19,14.6,2.53,2,2.59,0,7.66A34.32,34.32,0,0,0,654,124l-2.69,5.32Z"/><path class="cls-3" d="M695,101s1-34,21-34,21,34,0,34Z"/><path class="cls-3" d="M695,101s30-1,32,6-8,18-8,18l-13-3Z"/><path class="cls-3" d="M695,105.32S707,118,699,128l-8,10h-4.71L676,128a92,92,0,0,1,3-9c1-2,7-8,7-8Z"/><path class="cls-3" d="M688.88,101s-.64,9.65-19.26,4.32S660,93,660,93l5-7s6.7-3,8.35-2,12,11.36,12,11.36Z"/><path class="cls-3" d="M688.88,101S676,85.16,676,77.08s6.44-8.34,6.44-8.34,11.64-4.19,14.6,2.53,2,2.59,0,7.66A34.32,34.32,0,0,0,695,90l-2.69,5.32Z"/><path class="cls-3" d="M383,87s1-34,21-34,21,34,0,34Z"/><path class="cls-3" d="M383,87s30-1,32,6-8,18-8,18l-13-3Z"/><path class="cls-3" d="M383,91.32S395,104,387,114l-8,10h-4.71L364,114a92,92,0,0,1,3-9c1-2,7-8,7-8Z"/><path class="cls-3" d="M376.88,87s-.64,9.65-19.26,4.32S348,79,348,79l5-7s6.7-3,8.35-2,12,11.36,12,11.36Z"/><path class="cls-3" d="M376.88,87S364,71.16,364,63.08s6.44-8.34,6.44-8.34,11.64-4.19,14.6,2.53,2,2.59,0,7.66A34.32,34.32,0,0,0,383,76l-2.69,5.32Z"/><path class="cls-3" d="M589,270s1-34,21-34,21,34,0,34Z"/><path class="cls-3" d="M589,270s30-1,32,6-8,18-8,18l-13-3Z"/><path class="cls-3" d="M589,274.32S601,287,593,297l-8,10h-4.71L570,297a92,92,0,0,1,3-9c1-2,7-8,7-8Z"/><path class="cls-3" d="M582.88,270s-.64,9.65-19.26,4.32S554,262,554,262l5-7s6.7-3,8.35-2,12,11.36,12,11.36Z"/><path class="cls-3" d="M582.88,270S570,254.16,570,246.08s6.44-8.34,6.44-8.34,11.64-4.19,14.6,2.53,2,2.59,0,7.66A34.32,34.32,0,0,0,589,259l-2.69,5.32Z"/><path class="cls-3" d="M689.9,274.65s23.38-24.71,38.3-11.4-7,39.36-22.63,25.38Z"/><path class="cls-3" d="M689.9,274.65s23.05,19.22,19.88,25.78-17.95,8.1-17.95,8.1l-7.7-10.89Z"/><path class="cls-3" d="M687,277.87s.51,17.45-12.11,19.59l-12.63,2.13-3.51-3.13-1-14.31a90,90,0,0,1,8.23-4.72c2.07-.83,10.54-1.31,10.54-1.31Z"/><path class="cls-3" d="M685.33,270.57s-6.9,6.77-17.25-9.59,1-15.6,1-15.6l8.39-1.9s7,2.22,7.56,4.07,1.4,16.47,1.4,16.47Z"/><path class="cls-3" d="M685.33,270.57s.94-20.39,6.31-26.42S702,242.21,702,242.21s11.48,4.62,9.21,11.61-.2,3.29-5.1,5.72a34.19,34.19,0,0,0-8.92,6.93l-5.55,2.18Z"/><path class="cls-3" d="M714,194s1-34,21-34,21,34,0,34Z"/><path class="cls-3" d="M714,194s30-1,32,6-8,18-8,18l-13-3Z"/><path class="cls-3" d="M714,198.32S726,211,718,221l-8,10h-4.71L695,221a92,92,0,0,1,3-9c1-2,7-8,7-8Z"/><path class="cls-3" d="M707.88,194s-.64,9.65-19.26,4.32S679,186,679,186l5-7s6.7-3,8.35-2,12,11.36,12,11.36Z"/><path class="cls-3" d="M707.88,194S695,178.16,695,170.08s6.44-8.34,6.44-8.34,11.64-4.19,14.6,2.53,2,2.59,0,7.66A34.32,34.32,0,0,0,714,183l-2.69,5.32Z"/><path class="cls-2" d="M793,69s1-34,21-34,21,34,0,34Z"/><path class="cls-2" d="M793,69s30-1,32,6-8,18-8,18l-13-3Z"/><path class="cls-2" d="M793,73.32S805,86,797,96l-8,10h-4.71L774,96a92,92,0,0,1,3-9c1-2,7-8,7-8Z"/><path class="cls-2" d="M786.88,69s-.64,9.65-19.26,4.32S758,61,758,61l5-7s6.7-3,8.35-2,12,11.36,12,11.36Z"/><path class="cls-2" d="M786.88,69S774,53.16,774,45.08s6.44-8.34,6.44-8.34,11.64-4.19,14.6,2.53,2,2.59,0,7.66A34.32,34.32,0,0,0,793,58l-2.69,5.32Z"/><path class="cls-3" d="M712,34s1-34,21-34,21,34,0,34Z"/><path class="cls-3" d="M712,34s30-1,32,6-8,18-8,18l-13-3Z"/><path class="cls-3" d="M712,38.32S724,51,716,61l-8,10h-4.71L693,61a92,92,0,0,1,3-9c1-2,7-8,7-8Z"/><path class="cls-3" d="M705.88,34s-.64,9.65-19.26,4.32S677,26,677,26l5-7s6.7-3,8.35-2,12,11.36,12,11.36Z"/><path class="cls-3" d="M705.88,34S693,18.16,693,10.08s6.44-8.34,6.44-8.34S711.08-2.45,714,4.27s2,2.59,0,7.66A34.32,34.32,0,0,0,712,23l-2.69,5.32Z"/><path class="cls-3" d="M658,50s1-34,21-34,21,34,0,34Z"/><path class="cls-3" d="M658,50s30-1,32,6-8,18-8,18l-13-3Z"/><path class="cls-3" d="M658,54.32S670,67,662,77l-8,10h-4.71L639,77a92,92,0,0,1,3-9c1-2,7-8,7-8Z"/><path class="cls-3" d="M651.88,50s-.64,9.65-19.26,4.32S623,42,623,42l5-7s6.7-3,8.35-2,12,11.36,12,11.36Z"/><path class="cls-3" d="M651.88,50S639,34.16,639,26.08s6.44-8.34,6.44-8.34,11.64-4.19,14.6,2.53,2,2.59,0,7.66A34.32,34.32,0,0,0,658,39l-2.69,5.32Z"/><path class="cls-4" d="M872,555l-46.62,23-11.12,98.77,11.12,39S867,739,871,739s34.16-7.52,34.16-7.52L906,558Z"/></svg>