<svg id="Layer_1" data-name="Layer 1" xmlns="http://www.w3.org/2000/svg" viewBox="0 0 1110 595"><defs><style>.cls-1{fill:#f7d64c;}.cls-2{fill:#f4c24a;}</style></defs><polygon class="cls-1" points="-0.27 86.84 23.31 156.27 251.97 86.84 234.22 18.72 -0.27 86.84"/><path class="cls-2" d="M23.31,156.27S75.12,359,121.92,369.81h8.4S48.15,249,32.45,153.5Z"/><path class="cls-2" d="M252,86.84s60.85,210.92,75.26,241.05c0,0-5.05,5.24-12.35,0S241.43,96,243.72,86.84,252,86.84,252,86.84Z"/><polygon class="cls-2" points="364.19 391.49 69.16 551.9 78.33 562.38 383.59 393.26 364.19 391.49"/><polygon class="cls-2" points="200 376.54 400.59 580.72 379.24 580.72 183.42 375.03 200 376.54"/><polygon class="cls-2" points="771.56 323.64 1032.54 569.12 1021.48 580.87 752.04 322.93 771.56 323.64"/><polygon class="cls-2" points="936.73 329.68 699.39 555.23 720.5 558.45 953.4 330.28 936.73 329.68"/><polygon class="cls-2" points="350.65 294.01 551.25 498.19 529.89 498.19 334.07 292.5 350.65 294.01"/><polygon class="cls-1" points="303.65 271.56 108.05 368.17 371.77 419.59 536.84 301.69 303.65 271.56"/><ellipse class="cls-2" cx="853.23" cy="293.72" rx="223.5" ry="53"/><ellipse class="cls-1" cx="853.23" cy="286.72" rx="223.5" ry="53"/></svg>